<?xml version="1.0" encoding="utf-8"?>
<!-- Generator: Adobe Illustrator 24.3.0, SVG Export Plug-In . SVG Version: 6.00 Build 0)  -->
<svg version="1.0" id="Layer_1" xmlns="http://www.w3.org/2000/svg" xmlns:xlink="http://www.w3.org/1999/xlink" x="0px" y="0px"
	 viewBox="0 0 328.49 249.98" enable-background="new 0 0 328.49 249.98" xml:space="preserve">
<g>
	<radialGradient id="SVGID_1_" cx="115.4516" cy="136.7392" r="119.137" gradientUnits="userSpaceOnUse">
		<stop  offset="0" style="stop-color:#707070"/>
		<stop  offset="1" style="stop-color:#000000"/>
	</radialGradient>
	<circle fill="url(#SVGID_1_)" cx="166.05" cy="149.34" r="82.56"/>
	<radialGradient id="SVGID_2_" cx="139.2156" cy="118.5312" r="26.9232" gradientUnits="userSpaceOnUse">
		<stop  offset="0" style="stop-color:#000000"/>
		<stop  offset="0.0454" style="stop-color:#0F0F0F"/>
		<stop  offset="0.3187" style="stop-color:#636363"/>
		<stop  offset="0.5602" style="stop-color:#A6A6A6"/>
		<stop  offset="0.761" style="stop-color:#D6D6D6"/>
		<stop  offset="0.9136" style="stop-color:#F4F4F4"/>
		<stop  offset="1" style="stop-color:#FFFFFF"/>
	</radialGradient>
	<path fill="url(#SVGID_2_)" d="M144.41,134.79c-7.22,6.63-23.85,7.49-23.85,7.49s23.97,3.78,29.95-2.8
		c5.98-6.58,9.7-17.25,16.48-23.93c1.42-1.4-8.34-17.1-8.34-17.1S151.63,128.15,144.41,134.79z"/>
	
		<radialGradient id="SVGID_3_" cx="2048.5835" cy="-12395.6787" r="26.9228" gradientTransform="matrix(0.2752 0.9614 -0.9614 0.2752 -12291.6035 1554.4578)" gradientUnits="userSpaceOnUse">
		<stop  offset="0" style="stop-color:#000000"/>
		<stop  offset="0.0454" style="stop-color:#0F0F0F"/>
		<stop  offset="0.3187" style="stop-color:#636363"/>
		<stop  offset="0.5602" style="stop-color:#A6A6A6"/>
		<stop  offset="0.761" style="stop-color:#D6D6D6"/>
		<stop  offset="0.9136" style="stop-color:#F4F4F4"/>
		<stop  offset="1" style="stop-color:#FFFFFF"/>
	</radialGradient>
	<path fill="url(#SVGID_3_)" d="M175.17,122.14c-8.36-5.11-13.76-20.87-13.76-20.87s2.96,24.08,10.93,28.02
		c7.97,3.94,19.25,4.58,27.54,9.26c1.73,0.98,14.14-12.72,14.14-12.72S183.54,127.25,175.17,122.14z"/>
	
		<radialGradient id="SVGID_4_" cx="-9245.9443" cy="-17717.6992" r="26.9235" gradientTransform="matrix(-0.8377 0.5461 -0.5461 -0.8377 -17210.4922 -9634.2881)" gradientUnits="userSpaceOnUse">
		<stop  offset="0" style="stop-color:#000000"/>
		<stop  offset="0.0454" style="stop-color:#0F0F0F"/>
		<stop  offset="0.3187" style="stop-color:#636363"/>
		<stop  offset="0.5602" style="stop-color:#A6A6A6"/>
		<stop  offset="0.761" style="stop-color:#D6D6D6"/>
		<stop  offset="0.9136" style="stop-color:#F4F4F4"/>
		<stop  offset="1" style="stop-color:#FFFFFF"/>
	</radialGradient>
	<path fill="url(#SVGID_4_)" d="M197.24,147.84c2.43-9.5,15.89-19.3,15.89-19.3s-22.14,9.92-23.56,18.7
		c-1.42,8.78,1.3,19.75-0.74,29.05c-0.42,1.94,16.32,9.77,16.32,9.77S194.82,157.34,197.24,147.84z"/>
	
		<radialGradient id="SVGID_5_" cx="-17620.5117" cy="-8797.1816" r="26.9228" gradientTransform="matrix(-0.7869 -0.6171 0.6171 -0.7869 -8265.1885 -17602.9473)" gradientUnits="userSpaceOnUse">
		<stop  offset="0" style="stop-color:#000000"/>
		<stop  offset="0.0454" style="stop-color:#0F0F0F"/>
		<stop  offset="0.3187" style="stop-color:#636363"/>
		<stop  offset="0.5602" style="stop-color:#A6A6A6"/>
		<stop  offset="0.761" style="stop-color:#D6D6D6"/>
		<stop  offset="0.9136" style="stop-color:#F4F4F4"/>
		<stop  offset="1" style="stop-color:#FFFFFF"/>
	</radialGradient>
	<path fill="url(#SVGID_5_)" d="M177.6,177.18c9.77-0.77,23.39,8.83,23.39,8.83s-16.53-17.77-25.3-16.28
		c-8.77,1.49-18.28,7.59-27.73,8.66c-1.97,0.22-3.99,18.6-3.99,18.6S167.82,177.95,177.6,177.18z"/>
	
		<radialGradient id="SVGID_6_" cx="-11667.5283" cy="2108.0012" r="26.9221" gradientTransform="matrix(0.3513 -0.9363 0.9363 0.3513 2253.6758 -11495.9697)" gradientUnits="userSpaceOnUse">
		<stop  offset="0" style="stop-color:#000000"/>
		<stop  offset="0.0454" style="stop-color:#0F0F0F"/>
		<stop  offset="0.3187" style="stop-color:#636363"/>
		<stop  offset="0.5602" style="stop-color:#A6A6A6"/>
		<stop  offset="0.761" style="stop-color:#D6D6D6"/>
		<stop  offset="0.9136" style="stop-color:#F4F4F4"/>
		<stop  offset="1" style="stop-color:#FFFFFF"/>
	</radialGradient>
	<path fill="url(#SVGID_6_)" d="M145.64,169.73c3.68,9.09-1.37,24.96-1.37,24.96s11.96-21.11,7.9-29.03
		c-4.06-7.91-12.75-15.14-16.62-23.83c-0.81-1.82-18.94,1.8-18.94,1.8S141.96,160.64,145.64,169.73z"/>
	<g>
		<g>
			
				<radialGradient id="SVGID_7_" cx="6992.2505" cy="-2840.7603" r="149.198" gradientTransform="matrix(0.1665 0.986 -0.986 0.1665 -3766.0764 -6249.9087)" gradientUnits="userSpaceOnUse">
				<stop  offset="0" style="stop-color:#000000"/>
				<stop  offset="1" style="stop-color:#000000"/>
			</radialGradient>
			<path fill="url(#SVGID_7_)" d="M159.55,98.44c0,0,1.38,26.03,20.11,29.95c76.45,16.01,66.38,72.29,66.38,72.29
				s38.42-28.09,26.61-57.65c-11.82-29.56-51.66-36.96-67.82-32.9C173.74,117.94,159.55,98.44,159.55,98.44z"/>
			
				<radialGradient id="SVGID_8_" cx="6901.3257" cy="-2861.0039" r="68.4325" gradientTransform="matrix(0.1665 0.986 -0.986 0.1665 -3766.0764 -6249.9087)" gradientUnits="userSpaceOnUse">
				<stop  offset="0" style="stop-color:#FFFFFF"/>
				<stop  offset="1" style="stop-color:#000000"/>
			</radialGradient>
			<path fill="url(#SVGID_8_)" d="M159.55,98.44c0,0,2.37,26.78,21.38,28.9c92.07,10.23,65.11,73.34,65.11,73.34
				s21.65-33.76,10.65-63.63c-8.81-23.94-51.8-13.8-69.11-14.76C161.33,120.83,159.55,98.44,159.55,98.44z"/>
			
				<linearGradient id="SVGID_9_" gradientUnits="userSpaceOnUse" x1="6902.7173" y1="-2882.2158" x2="7028.876" y2="-2882.2158" gradientTransform="matrix(0.1665 0.986 -0.986 0.1665 -3766.0764 -6249.9087)">
				<stop  offset="0" style="stop-color:#32D2FC"/>
				<stop  offset="9.372265e-03" style="stop-color:#30CEFB"/>
				<stop  offset="0.0742" style="stop-color:#25B3F5"/>
				<stop  offset="0.1404" style="stop-color:#1CA0F1"/>
				<stop  offset="0.2084" style="stop-color:#1895EF"/>
				<stop  offset="0.2809" style="stop-color:#1691EE"/>
				<stop  offset="0.6685" style="stop-color:#1A64D4"/>
				<stop  offset="0.8876" style="stop-color:#0C36BC"/>
				<stop  offset="1" style="stop-color:#1A38BF"/>
			</linearGradient>
			<path fill="url(#SVGID_9_)" d="M159.55,98.44c4.84,0.04,12.53,16.93,40.08-6.77c27.55-23.7,89.02-31.81,99.86,15.55
				c13.45,58.75-53.44,93.46-53.44,93.46s32.01-50.33,11.41-71.3s-70.05-0.68-85.06-12.08C160.27,108.09,159.55,98.44,159.55,98.44z
				"/>
			
				<radialGradient id="SVGID_10_" cx="6999.5303" cy="-2928.5667" r="104.338" gradientTransform="matrix(0.1665 0.986 -0.986 0.1665 -3766.0764 -6249.9087)" gradientUnits="userSpaceOnUse">
				<stop  offset="0" style="stop-color:#32D2FC"/>
				<stop  offset="0.1798" style="stop-color:#31CEFB"/>
				<stop  offset="0.3406" style="stop-color:#30C4F6"/>
				<stop  offset="0.4942" style="stop-color:#2DB1EF"/>
				<stop  offset="0.6434" style="stop-color:#2998E5"/>
				<stop  offset="0.7893" style="stop-color:#2476D8"/>
				<stop  offset="0.9309" style="stop-color:#1D4EC8"/>
				<stop  offset="1" style="stop-color:#1A38BF"/>
			</radialGradient>
			<path fill="url(#SVGID_10_)" d="M246.05,200.68c0.01-0.01,0.08-0.12,0.19-0.31c9.4-5.31,64.41-38.94,52.09-92.72
				c-8.3-36.24-46.25-40-75.95-29.14c29.87-11.39,68.71-8.01,77.11,28.71C312.91,165.83,246.36,200.52,246.05,200.68z"/>
			
				<radialGradient id="SVGID_11_" cx="6962.439" cy="-2985.427" r="153.078" gradientTransform="matrix(0.1665 0.986 -0.986 0.1665 -3766.0764 -6249.9087)" gradientUnits="userSpaceOnUse">
				<stop  offset="0" style="stop-color:#32D2FC"/>
				<stop  offset="0.1798" style="stop-color:#31CEFB"/>
				<stop  offset="0.3406" style="stop-color:#30C4F6"/>
				<stop  offset="0.4942" style="stop-color:#2DB1EF"/>
				<stop  offset="0.6434" style="stop-color:#2998E5"/>
				<stop  offset="0.7893" style="stop-color:#2476D8"/>
				<stop  offset="0.9309" style="stop-color:#1D4EC8"/>
				<stop  offset="1" style="stop-color:#1A38BF"/>
			</radialGradient>
			<path fill="url(#SVGID_11_)" d="M270.72,177.93c11.07-15,20.18-36.95,13.63-65.55c-10.84-47.35-58.01-43.28-85.57-19.57
				c-25.58,22.01-34.04,9.01-38.99,7.02v0c-0.2-0.88-0.24-1.38-0.24-1.38c4.84,0.04,12.53,16.93,40.08-6.77
				c27.55-23.7,74.73-27.78,85.57,19.57C291.92,140.58,282.17,162.91,270.72,177.93z"/>
			
				<linearGradient id="SVGID_12_" gradientUnits="userSpaceOnUse" x1="6989.5879" y1="-2948.8748" x2="6923.9863" y2="-2784.8711" gradientTransform="matrix(0.1665 0.986 -0.986 0.1665 -3766.0764 -6249.9087)">
				<stop  offset="0" style="stop-color:#32D2FC"/>
				<stop  offset="9.372265e-03" style="stop-color:#30CEFB"/>
				<stop  offset="0.0742" style="stop-color:#25B3F5"/>
				<stop  offset="0.1404" style="stop-color:#1CA0F1"/>
				<stop  offset="0.2084" style="stop-color:#1895EF"/>
				<stop  offset="0.2809" style="stop-color:#1691EE"/>
				<stop  offset="0.6685" style="stop-color:#1A64D4"/>
				<stop  offset="0.8876" style="stop-color:#0C36BC"/>
				<stop  offset="1" style="stop-color:#1A38BF"/>
			</linearGradient>
			<path fill="url(#SVGID_12_)" d="M246.05,200.68c0.21-0.32,31.95-50.39,11.41-71.3c-20.6-20.97-70.05-0.68-85.05-12.08
				c-9.38-7.12-11.94-14.5-12.62-17.49c4.95,2,13.41,14.99,38.99-7.02c27.55-23.7,74.73-27.78,85.57,19.57
				c6.55,28.6-2.56,50.55-13.63,65.55C259.3,192.9,246.19,200.6,246.05,200.68z"/>
			
				<linearGradient id="SVGID_13_" gradientUnits="userSpaceOnUse" x1="6945.0571" y1="-2828.26" x2="6938.3301" y2="-2926.0859" gradientTransform="matrix(0.1665 0.986 -0.986 0.1665 -3766.0764 -6249.9087)">
				<stop  offset="0" style="stop-color:#32D2FC"/>
				<stop  offset="9.372265e-03" style="stop-color:#30CEFB"/>
				<stop  offset="0.0742" style="stop-color:#25B3F5"/>
				<stop  offset="0.1404" style="stop-color:#1CA0F1"/>
				<stop  offset="0.2084" style="stop-color:#1895EF"/>
				<stop  offset="0.2809" style="stop-color:#1691EE"/>
				<stop  offset="0.6685" style="stop-color:#1A64D4"/>
				<stop  offset="0.8876" style="stop-color:#0C36BC"/>
				<stop  offset="1" style="stop-color:#1A38BF"/>
			</linearGradient>
			<path fill="url(#SVGID_13_)" d="M259.48,131.75c-0.61-0.82-1.28-1.62-2.02-2.37c-20.6-20.97-70.05-0.68-85.05-12.08
				c-4.79-3.64-7.8-7.35-9.69-10.5c1.89,2.65,4.51,5.65,8.35,8.45c18.81,13.72,71.42,2.99,85.05,12.08
				C257.7,128.39,258.56,130.17,259.48,131.75z"/>
			
				<radialGradient id="SVGID_14_" cx="6801.8633" cy="-2806.9194" r="167.8312" gradientTransform="matrix(0.1665 0.986 -0.986 0.1665 -3766.0764 -6249.9087)" gradientUnits="userSpaceOnUse">
				<stop  offset="0" style="stop-color:#FFFFFF"/>
				<stop  offset="1" style="stop-color:#000000"/>
			</radialGradient>
			<path fill="url(#SVGID_14_)" d="M211.77,103.13c32.93-18.07,74.2-3.01,79.84,51.33c19.96-57.95-11.38-74.91-25.36-78.86
				c-8.71-2.46-28.07-0.78-38.43,2.07c-4.92,1.36-9.79,3.32-14.48,5.84c-4.68,2.51-9.06,5.52-13.04,8.94
				c-9.66,8.31-17.8,12.52-24.88,12.87c-4.64,0.23-8.06-0.85-10.63-2.4C165.16,103.68,184.69,117.99,211.77,103.13z"/>
			
				<radialGradient id="SVGID_15_" cx="7019.4839" cy="-2921.488" r="41.7908" gradientTransform="matrix(0.1665 0.986 -0.986 0.1665 -3766.0764 -6249.9087)" gradientUnits="userSpaceOnUse">
				<stop  offset="0" style="stop-color:#FFFFFF"/>
				<stop  offset="1" style="stop-color:#000000"/>
			</radialGradient>
			<path fill="url(#SVGID_15_)" d="M276,176.4c8.48-8.79,14.83-18.13,18.89-27.76c4.41-10.45,6.1-21.28,5.05-32.25
				c-0.7,5.85-2.93,10.82-9.23,26.57c-7.69,19.25-12.98,29.56-28.49,45.83C266.31,185.55,271.7,180.85,276,176.4z"/>
		</g>
		
			<radialGradient id="SVGID_16_" cx="17330.3594" cy="-1416.7985" r="21.5874" gradientTransform="matrix(0.2035 0.1767 -0.6041 0.6957 -4174.7393 -1939.5198)" gradientUnits="userSpaceOnUse">
			<stop  offset="0" style="stop-color:#000000"/>
			<stop  offset="1" style="stop-color:#FFFFFF"/>
		</radialGradient>
		<path fill="url(#SVGID_16_)" d="M220.92,122.07c-2.43-2.11-10.23,2.91-17.43,11.2c-7.2,8.29-11.08,16.73-8.65,18.83
			c2.43,2.11,10.23-2.91,17.44-11.2C219.47,132.61,223.35,124.18,220.92,122.07z"/>
		
			<radialGradient id="SVGID_17_" cx="-6953.1606" cy="2521.071" r="21.5884" gradientTransform="matrix(0.3434 -0.2481 0.4055 0.5613 1616.175 -2960.156)" gradientUnits="userSpaceOnUse">
			<stop  offset="0" style="stop-color:#000000"/>
			<stop  offset="0.0454" style="stop-color:#0F0F0F"/>
			<stop  offset="0.3187" style="stop-color:#636363"/>
			<stop  offset="0.5602" style="stop-color:#A6A6A6"/>
			<stop  offset="0.761" style="stop-color:#D6D6D6"/>
			<stop  offset="0.9136" style="stop-color:#F4F4F4"/>
			<stop  offset="1" style="stop-color:#FFFFFF"/>
		</radialGradient>
		<path fill="url(#SVGID_17_)" d="M242,167.88c-4.09,2.96-3.5,10.78,1.34,17.47c4.83,6.69,12.07,9.72,16.17,6.76
			c4.09-2.96,3.49-10.78-1.34-17.47C253.33,167.95,246.09,164.93,242,167.88z"/>
		<g>
			
				<radialGradient id="SVGID_18_" cx="5851.4658" cy="-9487.2002" r="149.1939" gradientTransform="matrix(-0.8863 0.4631 -0.4631 -0.8863 949.7623 -10932.2129)" gradientUnits="userSpaceOnUse">
				<stop  offset="0" style="stop-color:#000000"/>
				<stop  offset="1" style="stop-color:#000000"/>
			</radialGradient>
			<path fill="url(#SVGID_18_)" d="M214.35,125.9c0,0-24.33,9.36-22.27,28.38c8.4,77.65-48.23,85.47-48.23,85.47
				s38.59,27.86,63.05,7.49c24.46-20.37,19.18-60.56,10.33-74.67C200.19,145.43,214.35,125.9,214.35,125.9z"/>
			
				<radialGradient id="SVGID_19_" cx="5760.5415" cy="-9507.4424" r="68.4316" gradientTransform="matrix(-0.8863 0.4631 -0.4631 -0.8863 949.7623 -10932.2129)" gradientUnits="userSpaceOnUse">
				<stop  offset="0" style="stop-color:#FFFFFF"/>
				<stop  offset="1" style="stop-color:#000000"/>
			</radialGradient>
			<path fill="url(#SVGID_19_)" d="M214.35,125.9c0,0-24.74,10.53-20.87,29.27c18.73,90.72-49.63,84.59-49.63,84.59
				s38.8,10.16,63.81-9.54c20.05-15.78-2.88-53.53-7.32-70.29C193.61,134.51,214.35,125.9,214.35,125.9z"/>
			
				<linearGradient id="SVGID_20_" gradientUnits="userSpaceOnUse" x1="5761.937" y1="-9528.6533" x2="5888.0908" y2="-9528.6533" gradientTransform="matrix(-0.8863 0.4631 -0.4631 -0.8863 949.7623 -10932.2129)">
				<stop  offset="0" style="stop-color:#32D2FC"/>
				<stop  offset="9.372265e-03" style="stop-color:#30CEFB"/>
				<stop  offset="0.0742" style="stop-color:#25B3F5"/>
				<stop  offset="0.1404" style="stop-color:#1CA0F1"/>
				<stop  offset="0.2084" style="stop-color:#1895EF"/>
				<stop  offset="0.2809" style="stop-color:#1691EE"/>
				<stop  offset="0.6685" style="stop-color:#1A64D4"/>
				<stop  offset="0.8876" style="stop-color:#0C36BC"/>
				<stop  offset="1" style="stop-color:#1A38BF"/>
			</linearGradient>
			<path fill="url(#SVGID_20_)" d="M214.35,125.9c1.46,4.61-12.23,17.15,18.82,36.03c31.06,18.88,57.76,74.83,16.07,99.77
				c-51.72,30.95-105.4-21.95-105.4-21.95s57.76,14.89,71.33-11.18c13.58-26.07-21-66.83-14.8-84.63
				C205.4,129.56,214.35,125.9,214.35,125.9z"/>
			
				<radialGradient id="SVGID_21_" cx="5858.7466" cy="-9575.0029" r="104.3326" gradientTransform="matrix(-0.8863 0.4631 -0.4631 -0.8863 949.7623 -10932.2129)" gradientUnits="userSpaceOnUse">
				<stop  offset="0" style="stop-color:#32D2FC"/>
				<stop  offset="0.1798" style="stop-color:#31CEFB"/>
				<stop  offset="0.3406" style="stop-color:#30C4F6"/>
				<stop  offset="0.4942" style="stop-color:#2DB1EF"/>
				<stop  offset="0.6434" style="stop-color:#2998E5"/>
				<stop  offset="0.7893" style="stop-color:#2476D8"/>
				<stop  offset="0.9309" style="stop-color:#1D4EC8"/>
				<stop  offset="1" style="stop-color:#1A38BF"/>
			</radialGradient>
			<path fill="url(#SVGID_21_)" d="M143.84,239.76c0.02,0,0.14,0.03,0.35,0.09c7.96,7.3,56.94,49.22,104.28,20.89
				c31.91-19.09,23.75-56.34,4.24-81.24c20.06,24.89,28.85,62.87-3.47,82.21C197.65,292.58,144.09,240.01,143.84,239.76z"/>
			
				<radialGradient id="SVGID_22_" cx="5821.6572" cy="-9631.8604" r="153.071" gradientTransform="matrix(-0.8863 0.4631 -0.4631 -0.8863 949.7623 -10932.2129)" gradientUnits="userSpaceOnUse">
				<stop  offset="0" style="stop-color:#32D2FC"/>
				<stop  offset="0.1798" style="stop-color:#31CEFB"/>
				<stop  offset="0.3406" style="stop-color:#30C4F6"/>
				<stop  offset="0.4942" style="stop-color:#2DB1EF"/>
				<stop  offset="0.6434" style="stop-color:#2998E5"/>
				<stop  offset="0.7893" style="stop-color:#2476D8"/>
				<stop  offset="0.9309" style="stop-color:#1D4EC8"/>
				<stop  offset="1" style="stop-color:#1A38BF"/>
			</radialGradient>
			<path fill="url(#SVGID_22_)" d="M173.11,256.19c17.68,5.9,41.37,7.77,66.55-7.29c41.69-24.94,23.23-68.55-7.83-87.43
				c-28.84-17.53-19.09-29.59-18.72-34.92l0,0c0.77-0.46,1.24-0.65,1.24-0.65c1.46,4.61-12.23,17.14,18.82,36.03
				c31.06,18.88,49.51,62.49,7.83,87.43C215.18,264.81,190.93,262.44,173.11,256.19z"/>
			
				<linearGradient id="SVGID_23_" gradientUnits="userSpaceOnUse" x1="5848.8042" y1="-9595.3086" x2="5783.2056" y2="-9431.3115" gradientTransform="matrix(-0.8863 0.4631 -0.4631 -0.8863 949.7623 -10932.2129)">
				<stop  offset="0" style="stop-color:#32D2FC"/>
				<stop  offset="9.372265e-03" style="stop-color:#30CEFB"/>
				<stop  offset="0.0742" style="stop-color:#25B3F5"/>
				<stop  offset="0.1404" style="stop-color:#1CA0F1"/>
				<stop  offset="0.2084" style="stop-color:#1895EF"/>
				<stop  offset="0.2809" style="stop-color:#1691EE"/>
				<stop  offset="0.6685" style="stop-color:#1A64D4"/>
				<stop  offset="0.8876" style="stop-color:#0C36BC"/>
				<stop  offset="1" style="stop-color:#1A38BF"/>
			</linearGradient>
			<path fill="url(#SVGID_23_)" d="M143.84,239.76c0.37,0.09,57.8,14.81,71.33-11.18c13.58-26.07-21-66.83-14.8-84.62
				c3.88-11.12,10.1-15.83,12.73-17.4c-0.37,5.33-10.11,17.39,18.72,34.92c31.06,18.88,49.51,62.49,7.83,87.43
				c-25.18,15.07-48.87,13.19-66.55,7.29C155.34,249.96,143.97,239.87,143.84,239.76z"/>
			
				<linearGradient id="SVGID_24_" gradientUnits="userSpaceOnUse" x1="5804.2739" y1="-9474.7002" x2="5797.5474" y2="-9572.5205" gradientTransform="matrix(-0.8863 0.4631 -0.4631 -0.8863 949.7623 -10932.2129)">
				<stop  offset="0" style="stop-color:#32D2FC"/>
				<stop  offset="9.372265e-03" style="stop-color:#30CEFB"/>
				<stop  offset="0.0742" style="stop-color:#25B3F5"/>
				<stop  offset="0.1404" style="stop-color:#1CA0F1"/>
				<stop  offset="0.2084" style="stop-color:#1895EF"/>
				<stop  offset="0.2809" style="stop-color:#1691EE"/>
				<stop  offset="0.6685" style="stop-color:#1A64D4"/>
				<stop  offset="0.8876" style="stop-color:#0C36BC"/>
				<stop  offset="1" style="stop-color:#1A38BF"/>
			</linearGradient>
			<path fill="url(#SVGID_24_)" d="M213.55,231.24c0.6-0.83,1.14-1.72,1.63-2.65c13.58-26.07-21-66.83-14.8-84.62
				c1.98-5.68,4.58-9.69,6.99-12.46c-1.94,2.62-4.05,6.01-5.46,10.56c-6.65,21.48,28.38,58.55,14.8,84.62
				C215.83,228.36,214.77,229.88,213.55,231.24z"/>
			
				<radialGradient id="SVGID_25_" cx="5661.084" cy="-9453.0869" r="167.8303" gradientTransform="matrix(-0.8863 0.4631 -0.4631 -0.8863 949.7623 -10932.2129)" gradientUnits="userSpaceOnUse">
				<stop  offset="0" style="stop-color:#FFFFFF"/>
				<stop  offset="1" style="stop-color:#000000"/>
			</radialGradient>
			<path fill="url(#SVGID_25_)" d="M226.03,177.02c27.36,25.74,25.79,69.64-24.14,91.79c61.28,1.07,67.73-33.98,67.17-48.49
				c-0.35-9.05-7.93-26.94-13.85-35.91c-2.81-4.26-6.19-8.29-10.03-11.97c-3.84-3.67-8.05-6.91-12.53-9.64
				c-10.89-6.62-17.41-13.06-19.92-19.68c-1.65-4.34-1.61-8.25-0.93-11.18C211.17,132.53,203.52,155.85,226.03,177.02z"/>
			
				<radialGradient id="SVGID_26_" cx="5878.7002" cy="-9567.9209" r="41.7916" gradientTransform="matrix(-0.8863 0.4631 -0.4631 -0.8863 949.7623 -10932.2129)" gradientUnits="userSpaceOnUse">
				<stop  offset="0" style="stop-color:#FFFFFF"/>
				<stop  offset="1" style="stop-color:#000000"/>
			</radialGradient>
			<path fill="url(#SVGID_26_)" d="M176.2,260.74c10.98,5.35,21.83,8.51,32.24,9.39c11.3,0.96,22.12-0.78,32.23-5.17
				c-5.78,1.14-11.19,0.55-28.12-0.57c-20.68-1.37-32.13-3.21-52.39-12.93C164.49,254.36,170.63,258.03,176.2,260.74z"/>
		</g>
		
			<radialGradient id="SVGID_27_" cx="21450.3867" cy="-9849.625" r="21.5908" gradientTransform="matrix(-0.1121 0.245 -0.8378 -0.3834 -5653.3169 -8847.5498)" gradientUnits="userSpaceOnUse">
			<stop  offset="0" style="stop-color:#000000"/>
			<stop  offset="1" style="stop-color:#FFFFFF"/>
		</radialGradient>
		<path fill="url(#SVGID_27_)" d="M212.2,192.42c1.34-2.92-5.68-9-15.67-13.57c-9.99-4.57-19.17-5.91-20.51-2.99
			c-1.34,2.92,5.68,9,15.67,13.57C201.68,194,210.86,195.34,212.2,192.42z"/>
		
			<radialGradient id="SVGID_28_" cx="10027.6406" cy="2510.657" r="21.5887" gradientTransform="matrix(0.3637 0.2173 -0.3551 0.5944 -2591.8218 -3434.0991)" gradientUnits="userSpaceOnUse">
			<stop  offset="0" style="stop-color:#000000"/>
			<stop  offset="0.0454" style="stop-color:#0F0F0F"/>
			<stop  offset="0.3187" style="stop-color:#636363"/>
			<stop  offset="0.5602" style="stop-color:#A6A6A6"/>
			<stop  offset="0.761" style="stop-color:#D6D6D6"/>
			<stop  offset="0.9136" style="stop-color:#F4F4F4"/>
			<stop  offset="1" style="stop-color:#FFFFFF"/>
		</radialGradient>
		<path fill="url(#SVGID_28_)" d="M171.36,224.41c-4.34-2.59-11.28,1.05-15.52,8.14c-4.23,7.09-4.15,14.93,0.19,17.52
			c4.34,2.59,11.28-1.05,15.52-8.14C175.78,234.84,175.7,227,171.36,224.41z"/>
		<g>
			
				<radialGradient id="SVGID_29_" cx="-822.2932" cy="-10457.0654" r="149.1964" gradientTransform="matrix(-0.7143 -0.6998 0.6998 -0.7143 6860.7183 -7894.2319)" gradientUnits="userSpaceOnUse">
				<stop  offset="0" style="stop-color:#000000"/>
				<stop  offset="1" style="stop-color:#000000"/>
			</radialGradient>
			<path fill="url(#SVGID_29_)" d="M205.16,186.51c0,0-16.42-20.25-33.88-12.41c-71.25,31.98-96.19-19.46-96.19-19.46
				s-14.57,45.31,12.36,62.28c26.93,16.97,63.52-0.47,74.2-13.25C182.22,179.07,205.16,186.51,205.16,186.51z"/>
			
				<radialGradient id="SVGID_30_" cx="-913.2186" cy="-10477.3086" r="68.4326" gradientTransform="matrix(-0.7143 -0.6998 0.6998 -0.7143 6860.7183 -7894.2319)" gradientUnits="userSpaceOnUse">
				<stop  offset="0" style="stop-color:#FFFFFF"/>
				<stop  offset="1" style="stop-color:#000000"/>
			</radialGradient>
			<path fill="url(#SVGID_30_)" d="M205.16,186.51c0,0-17.66-20.28-34.29-10.81c-80.5,45.84-95.78-21.07-95.78-21.07
				s2.33,40.03,28.79,57.74c21.2,14.19,50.02-19.28,64.59-28.68C190.57,169.44,205.16,186.51,205.16,186.51z"/>
			
				<linearGradient id="SVGID_31_" gradientUnits="userSpaceOnUse" x1="-911.8241" y1="-10498.5195" x2="-785.6678" y2="-10498.5195" gradientTransform="matrix(-0.7143 -0.6998 0.6998 -0.7143 6860.7183 -7894.2319)">
				<stop  offset="0" style="stop-color:#32D2FC"/>
				<stop  offset="9.372265e-03" style="stop-color:#30CEFB"/>
				<stop  offset="0.0742" style="stop-color:#25B3F5"/>
				<stop  offset="0.1404" style="stop-color:#1CA0F1"/>
				<stop  offset="0.2084" style="stop-color:#1895EF"/>
				<stop  offset="0.2809" style="stop-color:#1691EE"/>
				<stop  offset="0.6685" style="stop-color:#1A64D4"/>
				<stop  offset="0.8876" style="stop-color:#0C36BC"/>
				<stop  offset="1" style="stop-color:#1A38BF"/>
			</linearGradient>
			<path fill="url(#SVGID_31_)" d="M205.17,186.51c-3.94,2.82-20.09-6.34-28.45,29.04c-8.36,35.37-53.32,78.05-89.92,46.12
				c-45.41-39.63-11.7-107.03-11.7-107.03s3.68,59.53,32.67,64.39c28.99,4.86,57.07-40.63,75.91-40.22
				C198.92,179.12,205.17,186.51,205.17,186.51z"/>
			
				<radialGradient id="SVGID_32_" cx="-815.0124" cy="-10544.8701" r="104.3347" gradientTransform="matrix(-0.7143 -0.6998 0.6998 -0.7143 6860.7183 -7894.2319)" gradientUnits="userSpaceOnUse">
				<stop  offset="0" style="stop-color:#32D2FC"/>
				<stop  offset="0.1798" style="stop-color:#31CEFB"/>
				<stop  offset="0.3406" style="stop-color:#30C4F6"/>
				<stop  offset="0.4942" style="stop-color:#2DB1EF"/>
				<stop  offset="0.6434" style="stop-color:#2998E5"/>
				<stop  offset="0.7893" style="stop-color:#2476D8"/>
				<stop  offset="0.9309" style="stop-color:#1D4EC8"/>
				<stop  offset="1" style="stop-color:#1A38BF"/>
			</radialGradient>
			<path fill="url(#SVGID_32_)" d="M75.09,154.63c0,0.02,0.01,0.14,0.03,0.36c-4.49,9.82-29.21,69.36,12.36,105.63
				c28.01,24.45,60.92,5.18,78.58-21.07c-17.47,26.77-50.88,46.87-79.26,22.1C41.49,222.13,74.94,154.95,75.09,154.63z"/>
			
				<radialGradient id="SVGID_33_" cx="-852.1027" cy="-10601.7295" r="153.0748" gradientTransform="matrix(-0.7143 -0.6998 0.6998 -0.7143 6860.7183 -7894.2319)" gradientUnits="userSpaceOnUse">
				<stop  offset="0" style="stop-color:#32D2FC"/>
				<stop  offset="0.1798" style="stop-color:#31CEFB"/>
				<stop  offset="0.3406" style="stop-color:#30C4F6"/>
				<stop  offset="0.4942" style="stop-color:#2DB1EF"/>
				<stop  offset="0.6434" style="stop-color:#2998E5"/>
				<stop  offset="0.7893" style="stop-color:#2476D8"/>
				<stop  offset="0.9309" style="stop-color:#1D4EC8"/>
				<stop  offset="1" style="stop-color:#1A38BF"/>
			</radialGradient>
			<path fill="url(#SVGID_33_)" d="M68.51,187.55c-0.14,18.64,5.39,41.75,27.5,61.04c36.6,31.94,72.37,0.91,80.73-34.46
				c7.76-32.84,22.24-27.3,27.42-28.59l0,0c0.68,0.59,1,0.98,1,0.98c-3.93,2.82-20.09-6.34-28.45,29.03
				c-8.36,35.37-44.13,66.4-80.73,34.46C73.31,230.22,68.07,206.42,68.51,187.55z"/>
			
				<linearGradient id="SVGID_34_" gradientUnits="userSpaceOnUse" x1="-824.9548" y1="-10565.1768" x2="-890.5547" y2="-10401.1768" gradientTransform="matrix(-0.7143 -0.6998 0.6998 -0.7143 6860.7183 -7894.2319)">
				<stop  offset="0" style="stop-color:#32D2FC"/>
				<stop  offset="9.372265e-03" style="stop-color:#30CEFB"/>
				<stop  offset="0.0742" style="stop-color:#25B3F5"/>
				<stop  offset="0.1404" style="stop-color:#1CA0F1"/>
				<stop  offset="0.2084" style="stop-color:#1895EF"/>
				<stop  offset="0.2809" style="stop-color:#1691EE"/>
				<stop  offset="0.6685" style="stop-color:#1A64D4"/>
				<stop  offset="0.8876" style="stop-color:#0C36BC"/>
				<stop  offset="1" style="stop-color:#1A38BF"/>
			</linearGradient>
			<path fill="url(#SVGID_34_)" d="M75.09,154.63c0.02,0.38,3.77,59.55,32.67,64.39c28.99,4.86,57.07-40.63,75.91-40.22
				c11.77,0.25,18.18,4.71,20.49,6.73c-5.18,1.29-19.66-4.25-27.42,28.59c-8.36,35.37-44.13,66.4-80.73,34.46
				c-22.11-19.29-27.64-42.4-27.5-61.04C68.94,168.72,75.03,154.79,75.09,154.63z"/>
			
				<linearGradient id="SVGID_35_" gradientUnits="userSpaceOnUse" x1="-869.4861" y1="-10444.5654" x2="-876.2131" y2="-10542.3887" gradientTransform="matrix(-0.7143 -0.6998 0.6998 -0.7143 6860.7183 -7894.2319)">
				<stop  offset="0" style="stop-color:#32D2FC"/>
				<stop  offset="9.372265e-03" style="stop-color:#30CEFB"/>
				<stop  offset="0.0742" style="stop-color:#25B3F5"/>
				<stop  offset="0.1404" style="stop-color:#1CA0F1"/>
				<stop  offset="0.2084" style="stop-color:#1895EF"/>
				<stop  offset="0.2809" style="stop-color:#1691EE"/>
				<stop  offset="0.6685" style="stop-color:#1A64D4"/>
				<stop  offset="0.8876" style="stop-color:#0C36BC"/>
				<stop  offset="1" style="stop-color:#1A38BF"/>
			</linearGradient>
			<path fill="url(#SVGID_35_)" d="M104.74,218.29c0.98,0.31,1.98,0.55,3.03,0.73c28.99,4.86,57.07-40.63,75.91-40.22
				c6.02,0.13,10.63,1.36,14.01,2.8c-3.09-1.04-6.97-1.99-11.73-1.93c-22.48,0.31-46.92,45.08-75.91,40.22
				C108.18,219.58,106.41,219.03,104.74,218.29z"/>
			
				<radialGradient id="SVGID_36_" cx="-1012.6802" cy="-10423.0752" r="167.8346" gradientTransform="matrix(-0.7143 -0.6998 0.6998 -0.7143 6860.7183 -7894.2319)" gradientUnits="userSpaceOnUse">
				<stop  offset="0" style="stop-color:#FFFFFF"/>
				<stop  offset="1" style="stop-color:#000000"/>
			</radialGradient>
			<path fill="url(#SVGID_36_)" d="M160.16,213.41c-16.02,33.98-58.26,46.05-94.76,5.4c17.92,58.61,53.24,53.91,66.87,48.89
				c8.5-3.13,23.17-15.87,29.87-24.26c3.18-3.99,5.97-8.45,8.28-13.24c2.31-4.78,4.09-9.79,5.29-14.9
				c2.93-12.4,7.04-20.59,12.56-25.03c3.62-2.91,7.2-4.07,10.2-4.32C197.73,185.54,173.34,185.46,160.16,213.41z"/>
			
				<radialGradient id="SVGID_37_" cx="-795.0588" cy="-10537.7891" r="41.793" gradientTransform="matrix(-0.7143 -0.6998 0.6998 -0.7143 6860.7183 -7894.2319)" gradientUnits="userSpaceOnUse">
				<stop  offset="0" style="stop-color:#FFFFFF"/>
				<stop  offset="1" style="stop-color:#000000"/>
			</radialGradient>
			<path fill="url(#SVGID_37_)" d="M65.13,191.89c-1.69,12.1-1.34,23.39,1.03,33.56c2.58,11.05,7.57,20.8,14.87,29.06
				c-2.87-5.14-3.98-10.47-8.15-26.92c-5.09-20.09-6.88-31.54-3.89-53.82C67.59,178.79,65.99,185.75,65.13,191.89z"/>
		</g>
		
			<radialGradient id="SVGID_38_" cx="-4188.4277" cy="-13219.7168" r="21.588" gradientTransform="matrix(-0.2684 -0.0242 0.0826 -0.9177 111.6165 -12048.9531)" gradientUnits="userSpaceOnUse">
			<stop  offset="0" style="stop-color:#000000"/>
			<stop  offset="1" style="stop-color:#FFFFFF"/>
		</radialGradient>
		<path fill="url(#SVGID_38_)" d="M142.06,203.95c3.2,0.29,6.59-8.35,7.58-19.29c0.98-10.94-0.81-20.04-4.01-20.33
			c-3.2-0.29-6.59,8.35-7.58,19.29C137.06,194.56,138.86,203.66,142.06,203.95z"/>
		
			<radialGradient id="SVGID_39_" cx="-12947.7588" cy="-1490.9409" r="21.587" gradientTransform="matrix(0.1287 -0.4037 0.6597 0.2103 2733.1462 -4738.2466)" gradientUnits="userSpaceOnUse">
			<stop  offset="0" style="stop-color:#000000"/>
			<stop  offset="0.0454" style="stop-color:#0F0F0F"/>
			<stop  offset="0.3187" style="stop-color:#636363"/>
			<stop  offset="0.5602" style="stop-color:#A6A6A6"/>
			<stop  offset="0.761" style="stop-color:#D6D6D6"/>
			<stop  offset="0.9136" style="stop-color:#F4F4F4"/>
			<stop  offset="1" style="stop-color:#FFFFFF"/>
		</radialGradient>
		<path fill="url(#SVGID_39_)" d="M68.95,170.68c-1.53,4.81,3.6,10.75,11.46,13.25c7.87,2.51,15.49,0.64,17.02-4.18
			c1.53-4.81-3.6-10.75-11.46-13.25C78.11,164,70.49,165.87,68.95,170.68z"/>
		<g>
			
				<radialGradient id="SVGID_40_" cx="-3807.0061" cy="-4409.7871" r="149.1885" gradientTransform="matrix(0.4449 -0.8956 0.8956 0.4449 5798.7427 -1333.4761)" gradientUnits="userSpaceOnUse">
				<stop  offset="0" style="stop-color:#000000"/>
				<stop  offset="1" style="stop-color:#000000"/>
			</radialGradient>
			<path fill="url(#SVGID_40_)" d="M144.69,196.5c0,0,14.18-21.87,1.34-36.05c-52.44-57.88-11.22-97.5-11.22-97.5
				s-47.59,0.14-55.41,31c-7.82,30.86,20.08,60.27,35.53,66.48C144.67,172.38,144.69,196.5,144.69,196.5z"/>
			
				<radialGradient id="SVGID_41_" cx="-3897.9238" cy="-4430.0303" r="68.4278" gradientTransform="matrix(0.4449 -0.8956 0.8956 0.4449 5798.7427 -1333.4761)" gradientUnits="userSpaceOnUse">
				<stop  offset="0" style="stop-color:#FFFFFF"/>
				<stop  offset="1" style="stop-color:#000000"/>
			</radialGradient>
			<path fill="url(#SVGID_41_)" d="M144.69,196.5c0,0,13.83-23.06-0.32-35.95c-68.48-62.39-9.56-97.61-9.56-97.61
				s-37.36,14.59-46.02,45.22c-6.94,24.55,33.79,41.61,47.24,52.57C156.41,177.35,144.69,196.5,144.69,196.5z"/>
			
				<linearGradient id="SVGID_42_" gradientUnits="userSpaceOnUse" x1="-3896.5349" y1="-4451.2402" x2="-3770.3833" y2="-4451.2402" gradientTransform="matrix(0.4449 -0.8956 0.8956 0.4449 5798.7427 -1333.4761)">
				<stop  offset="0" style="stop-color:#32D2FC"/>
				<stop  offset="9.372265e-03" style="stop-color:#30CEFB"/>
				<stop  offset="0.0742" style="stop-color:#25B3F5"/>
				<stop  offset="0.1404" style="stop-color:#1CA0F1"/>
				<stop  offset="0.2084" style="stop-color:#1895EF"/>
				<stop  offset="0.2809" style="stop-color:#1691EE"/>
				<stop  offset="0.6685" style="stop-color:#1A64D4"/>
				<stop  offset="0.8876" style="stop-color:#0C36BC"/>
				<stop  offset="1" style="stop-color:#1A38BF"/>
			</linearGradient>
			<path fill="url(#SVGID_42_)" d="M144.69,196.5c-3.89-2.87-0.18-21.06-36.4-18.08c-36.22,2.98-90.71-26.59-71.65-71.27
				c23.65-55.44,98.17-44.2,98.17-44.2s-55.48,21.9-51.14,50.97c4.34,29.07,56.28,41.73,61.71,59.76
				C149.78,188.27,144.69,196.5,144.69,196.5z"/>
			
				<radialGradient id="SVGID_43_" cx="-3799.7271" cy="-4497.5889" r="104.3337" gradientTransform="matrix(0.4449 -0.8956 0.8956 0.4449 5798.7427 -1333.4761)" gradientUnits="userSpaceOnUse">
				<stop  offset="0" style="stop-color:#32D2FC"/>
				<stop  offset="0.1798" style="stop-color:#31CEFB"/>
				<stop  offset="0.3406" style="stop-color:#30C4F6"/>
				<stop  offset="0.4942" style="stop-color:#2DB1EF"/>
				<stop  offset="0.6434" style="stop-color:#2998E5"/>
				<stop  offset="0.7893" style="stop-color:#2476D8"/>
				<stop  offset="0.9309" style="stop-color:#1D4EC8"/>
				<stop  offset="1" style="stop-color:#1A38BF"/>
			</radialGradient>
			<path fill="url(#SVGID_43_)" d="M134.81,62.94c-0.02,0.01-0.13,0.05-0.33,0.13c-10.73-1.23-75-6.35-96.65,44.39
				c-14.59,34.2,13.9,59.54,44.32,68.22c-30.86-8.34-60.29-33.9-45.51-68.55C60.24,51.84,134.46,62.89,134.81,62.94z"/>
			
				<radialGradient id="SVGID_44_" cx="-3836.8164" cy="-4554.4473" r="153.0706" gradientTransform="matrix(0.4449 -0.8956 0.8956 0.4449 5798.7427 -1333.4761)" gradientUnits="userSpaceOnUse">
				<stop  offset="0" style="stop-color:#32D2FC"/>
				<stop  offset="0.1798" style="stop-color:#31CEFB"/>
				<stop  offset="0.3406" style="stop-color:#30C4F6"/>
				<stop  offset="0.4942" style="stop-color:#2DB1EF"/>
				<stop  offset="0.6434" style="stop-color:#2998E5"/>
				<stop  offset="0.7893" style="stop-color:#2476D8"/>
				<stop  offset="0.9309" style="stop-color:#1D4EC8"/>
				<stop  offset="1" style="stop-color:#1A38BF"/>
			</radialGradient>
			<path fill="url(#SVGID_44_)" d="M101.47,66.85c-17.77,5.62-38.04,18.03-49.55,45.02c-19.06,44.68,21.5,69.11,57.72,66.13
				c33.63-2.77,32.84,12.72,35.67,17.24v0c-0.36,0.83-0.62,1.25-0.62,1.25c-3.89-2.87-0.18-21.06-36.4-18.08
				c-36.22,2.98-76.79-21.45-57.72-66.13C62.37,84.61,83.39,72.27,101.47,66.85z"/>
			
				<linearGradient id="SVGID_45_" gradientUnits="userSpaceOnUse" x1="-3809.6694" y1="-4517.8965" x2="-3875.2671" y2="-4353.9023" gradientTransform="matrix(0.4449 -0.8956 0.8956 0.4449 5798.7427 -1333.4761)">
				<stop  offset="0" style="stop-color:#32D2FC"/>
				<stop  offset="9.372265e-03" style="stop-color:#30CEFB"/>
				<stop  offset="0.0742" style="stop-color:#25B3F5"/>
				<stop  offset="0.1404" style="stop-color:#1CA0F1"/>
				<stop  offset="0.2084" style="stop-color:#1895EF"/>
				<stop  offset="0.2809" style="stop-color:#1691EE"/>
				<stop  offset="0.6685" style="stop-color:#1A64D4"/>
				<stop  offset="0.8876" style="stop-color:#0C36BC"/>
				<stop  offset="1" style="stop-color:#1A38BF"/>
			</linearGradient>
			<path fill="url(#SVGID_45_)" d="M134.81,62.94c-0.36,0.14-55.47,21.99-51.14,50.97c4.34,29.07,56.27,41.73,61.71,59.76
				c3.4,11.28,1.13,18.75-0.07,21.56c-2.83-4.53-2.04-20.01-35.67-17.24c-36.22,2.98-76.79-21.45-57.72-66.13
				c11.51-26.99,31.78-39.39,49.55-45.02C119.51,61.45,134.64,62.93,134.81,62.94z"/>
			
				<linearGradient id="SVGID_46_" gradientUnits="userSpaceOnUse" x1="-3854.1963" y1="-4397.2881" x2="-3860.9231" y2="-4495.1089" gradientTransform="matrix(0.4449 -0.8956 0.8956 0.4449 5798.7427 -1333.4761)">
				<stop  offset="0" style="stop-color:#32D2FC"/>
				<stop  offset="9.372265e-03" style="stop-color:#30CEFB"/>
				<stop  offset="0.0742" style="stop-color:#25B3F5"/>
				<stop  offset="0.1404" style="stop-color:#1CA0F1"/>
				<stop  offset="0.2084" style="stop-color:#1895EF"/>
				<stop  offset="0.2809" style="stop-color:#1691EE"/>
				<stop  offset="0.6685" style="stop-color:#1A64D4"/>
				<stop  offset="0.8876" style="stop-color:#0C36BC"/>
				<stop  offset="1" style="stop-color:#1A38BF"/>
			</linearGradient>
			<path fill="url(#SVGID_46_)" d="M83.43,110.81c0.01,1.02,0.08,2.06,0.24,3.1c4.34,29.07,56.27,41.73,61.71,59.76
				c1.74,5.76,1.99,10.53,1.67,14.19c0.03-3.26-0.26-7.24-1.79-11.75c-7.24-21.28-57.37-30.69-61.71-59.76
				C83.27,114.48,83.24,112.63,83.43,110.81z"/>
			
				<radialGradient id="SVGID_47_" cx="-3997.3826" cy="-4375.9346" r="167.8203" gradientTransform="matrix(0.4449 -0.8956 0.8956 0.4449 5798.7427 -1333.4761)" gradientUnits="userSpaceOnUse">
				<stop  offset="0" style="stop-color:#FFFFFF"/>
				<stop  offset="1" style="stop-color:#000000"/>
			</radialGradient>
			<path fill="url(#SVGID_47_)" d="M105.2,162.01c-37.26-4.74-61.8-41.18-34.42-88.45c-50.21,35.15-34.82,67.3-25.84,78.71
				c5.6,7.11,22.25,17.13,32.31,20.91c4.78,1.79,9.88,3.07,15.15,3.79c5.26,0.72,10.58,0.86,15.8,0.43
				c12.7-1.04,21.76,0.33,27.69,4.21c3.89,2.54,6.03,5.44,7.2,8.21C143.24,188.98,135.85,165.91,105.2,162.01z"/>
			
				<radialGradient id="SVGID_48_" cx="-3779.7749" cy="-4490.5117" r="41.7874" gradientTransform="matrix(0.4449 -0.8956 0.8956 0.4449 5798.7427 -1333.4761)" gradientUnits="userSpaceOnUse">
				<stop  offset="0" style="stop-color:#FFFFFF"/>
				<stop  offset="1" style="stop-color:#000000"/>
			</radialGradient>
			<path fill="url(#SVGID_48_)" d="M96.3,64.98c-12.03,2.13-22.66,5.95-31.6,11.35C55,82.2,47.26,89.97,41.66,99.46
				c4-4.32,8.73-7.03,23.08-16.07c17.54-11.05,27.88-16.29,49.98-20.33C109.52,63.27,102.4,63.9,96.3,64.98z"/>
		</g>
		
			<radialGradient id="SVGID_49_" cx="-24188.4902" cy="-6143.8877" r="21.589" gradientTransform="matrix(-0.0326 -0.2675 0.9146 -0.1114 4958.4785 -7016.9063)" gradientUnits="userSpaceOnUse">
			<stop  offset="0" style="stop-color:#000000"/>
			<stop  offset="1" style="stop-color:#FFFFFF"/>
		</radialGradient>
		<path fill="url(#SVGID_49_)" d="M108.08,140.35c0.39,3.19,9.54,4.7,20.45,3.37c10.91-1.33,19.43-4.99,19.04-8.18
			c-0.39-3.19-9.54-4.7-20.45-3.37C116.21,133.5,107.69,137.16,108.08,140.35z"/>
		
			<radialGradient id="SVGID_50_" cx="2545.4612" cy="3909.6772" r="21.5893" gradientTransform="matrix(0.4232 -0.0199 0.0325 0.6916 -1085.1781 -2576.3357)" gradientUnits="userSpaceOnUse">
			<stop  offset="0" style="stop-color:#000000"/>
			<stop  offset="0.0454" style="stop-color:#0F0F0F"/>
			<stop  offset="0.3187" style="stop-color:#636363"/>
			<stop  offset="0.5602" style="stop-color:#A6A6A6"/>
			<stop  offset="0.761" style="stop-color:#D6D6D6"/>
			<stop  offset="0.9136" style="stop-color:#F4F4F4"/>
			<stop  offset="1" style="stop-color:#FFFFFF"/>
		</radialGradient>
		<path fill="url(#SVGID_50_)" d="M118.42,62.01c-5.05,0.24-8.82,7.11-8.43,15.36c0.39,8.25,4.79,14.74,9.84,14.5
			c5.05-0.24,8.82-7.11,8.43-15.36C127.87,68.27,123.47,61.77,118.42,62.01z"/>
		<g>
			
				<radialGradient id="SVGID_51_" cx="1022.4899" cy="298.2256" r="149.1979" gradientTransform="matrix(0.9892 0.1463 -0.1463 0.9892 -769.6387 -317.595)" gradientUnits="userSpaceOnUse">
				<stop  offset="0" style="stop-color:#000000"/>
				<stop  offset="1" style="stop-color:#000000"/>
			</radialGradient>
			<path fill="url(#SVGID_51_)" d="M193.86,48.29c-31.77,2.1-51.11,37.72-52.25,54.33c-2.18,31.98-25.11,39.45-25.11,39.45
				s25.19,6.73,34.7-9.87c4-6.98,8.12-12.95,12.3-18.05c-3.45-7.58-3.93-15.32-3.95-15.69c0-0.01,0-0.01,0-0.01
				c0.77,0.08,1.49,0.43,1.6,0.48c0.5,0.22,1.02,0.58,1.48,0.9c1.09,0.74,1.97,1.34,3.04,1.97c2.35,1.39,4.62,2.18,7.15,2.44
				c11.28-10.38,22.59-15.25,32.65-17.13c1.84-1.15,11.65-7.13,19.85-9.6c3.44-1.04,5.93-1.74,7.69-2.22
				C225.65,62.52,212.74,47.04,193.86,48.29z"/>
			<g>
				
					<linearGradient id="SVGID_52_" gradientUnits="userSpaceOnUse" x1="932.9582" y1="256.7707" x2="1059.1162" y2="256.7707" gradientTransform="matrix(0.9892 0.1463 -0.1463 0.9892 -769.6387 -317.595)">
					<stop  offset="0" style="stop-color:#32D2FC"/>
					<stop  offset="9.372265e-03" style="stop-color:#30CEFB"/>
					<stop  offset="0.0742" style="stop-color:#25B3F5"/>
					<stop  offset="0.1404" style="stop-color:#1CA0F1"/>
					<stop  offset="0.2084" style="stop-color:#1895EF"/>
					<stop  offset="0.2809" style="stop-color:#1691EE"/>
					<stop  offset="0.6685" style="stop-color:#1A64D4"/>
					<stop  offset="0.8876" style="stop-color:#0C36BC"/>
					<stop  offset="1" style="stop-color:#1A38BF"/>
				</linearGradient>
				<path fill="url(#SVGID_52_)" d="M168.09,11.7c-48.39-4.32-59.67,56.63-45.64,90.17c14.03,33.53-4.42,35.62-5.95,40.21
					c0,0,9.4,2.3,21.92-6.39c15.48-10.75,11.46-64.05,37.77-77.16c16.25-8.1,36.96,6.36,50.41,18.59c5.34-1.59,8.1-2.29,9.36-2.58
					C228.39,52.25,209.69,15.41,168.09,11.7z"/>
			</g>
			<g>
				
					<linearGradient id="SVGID_53_" gradientUnits="userSpaceOnUse" x1="932.9582" y1="256.7707" x2="1059.1162" y2="256.7707" gradientTransform="matrix(0.9892 0.1463 -0.1463 0.9892 -769.6387 -317.595)">
					<stop  offset="0" style="stop-color:#32D2FC"/>
					<stop  offset="9.372265e-03" style="stop-color:#30CEFB"/>
					<stop  offset="0.0742" style="stop-color:#25B3F5"/>
					<stop  offset="0.1404" style="stop-color:#1CA0F1"/>
					<stop  offset="0.2084" style="stop-color:#1895EF"/>
					<stop  offset="0.2809" style="stop-color:#1691EE"/>
					<stop  offset="0.6685" style="stop-color:#1A64D4"/>
					<stop  offset="0.8876" style="stop-color:#0C36BC"/>
					<stop  offset="1" style="stop-color:#1A38BF"/>
				</linearGradient>
				<path fill="url(#SVGID_53_)" d="M168.09,11.7c-48.39-4.32-59.67,56.63-45.64,90.17c14.03,33.53-4.42,35.62-5.95,40.21
					c0,0,9.4,2.3,21.92-6.39c15.48-10.75,11.46-64.05,37.77-77.16c16.25-8.1,36.96,6.36,50.41,18.59c5.34-1.59,8.1-2.29,9.36-2.58
					C228.39,52.25,209.69,15.41,168.09,11.7z"/>
			</g>
			<g>
				
					<radialGradient id="SVGID_54_" cx="1029.7708" cy="210.4194" r="104.3357" gradientTransform="matrix(0.9892 0.1463 -0.1463 0.9892 -769.6387 -317.595)" gradientUnits="userSpaceOnUse">
					<stop  offset="0" style="stop-color:#32D2FC"/>
					<stop  offset="0.1798" style="stop-color:#31CEFB"/>
					<stop  offset="0.3406" style="stop-color:#30C4F6"/>
					<stop  offset="0.4942" style="stop-color:#2DB1EF"/>
					<stop  offset="0.6434" style="stop-color:#2998E5"/>
					<stop  offset="0.7893" style="stop-color:#2476D8"/>
					<stop  offset="0.9309" style="stop-color:#1D4EC8"/>
					<stop  offset="1" style="stop-color:#1A38BF"/>
				</radialGradient>
				<path fill="url(#SVGID_54_)" d="M168.09,11.7c-37.52-3.35-52.73,32.54-51.13,64.47c-1.15-31.61,14.15-66.54,51.18-63.23
					c40.89,3.65,59.65,39.31,67.46,61.68c0.13-0.03,0.24-0.06,0.34-0.08C228.39,52.25,209.69,15.41,168.09,11.7z"/>
			</g>
			<g>
				
					<linearGradient id="SVGID_55_" gradientUnits="userSpaceOnUse" x1="1013.2544" y1="186.6585" x2="947.1005" y2="352.0435" gradientTransform="matrix(0.9892 0.1463 -0.1463 0.9892 -769.6387 -317.595)">
					<stop  offset="0" style="stop-color:#32D2FC"/>
					<stop  offset="9.372265e-03" style="stop-color:#30CEFB"/>
					<stop  offset="0.0742" style="stop-color:#25B3F5"/>
					<stop  offset="0.1404" style="stop-color:#1CA0F1"/>
					<stop  offset="0.2084" style="stop-color:#1895EF"/>
					<stop  offset="0.2809" style="stop-color:#1691EE"/>
					<stop  offset="0.6685" style="stop-color:#1A64D4"/>
					<stop  offset="0.8876" style="stop-color:#0C36BC"/>
					<stop  offset="1" style="stop-color:#1A38BF"/>
				</linearGradient>
				<path fill="url(#SVGID_55_)" d="M167.51,26.53c-48.39-4.32-59.08,41.8-45.06,75.33c14.03,33.53-4.42,35.62-5.95,40.21
					c0,0,9.4,2.3,21.92-6.39c15.48-10.75,11.46-64.05,37.77-77.16c16.25-8.1,36.96,6.36,50.41,18.59c3.81-1.14,6.31-1.82,7.89-2.22
					C225.99,56.85,206.88,30.05,167.51,26.53z"/>
			</g>
			
				<radialGradient id="SVGID_56_" cx="992.6799" cy="153.56" r="153.0765" gradientTransform="matrix(0.9892 0.1463 -0.1463 0.9892 -769.6387 -317.595)" gradientUnits="userSpaceOnUse">
				<stop  offset="0" style="stop-color:#32D2FC"/>
				<stop  offset="0.1798" style="stop-color:#31CEFB"/>
				<stop  offset="0.3406" style="stop-color:#30C4F6"/>
				<stop  offset="0.4942" style="stop-color:#2DB1EF"/>
				<stop  offset="0.6434" style="stop-color:#2998E5"/>
				<stop  offset="0.7893" style="stop-color:#2476D8"/>
				<stop  offset="0.9309" style="stop-color:#1D4EC8"/>
				<stop  offset="1" style="stop-color:#1A38BF"/>
			</radialGradient>
			<path fill="url(#SVGID_56_)" d="M226.45,60.9c-10.84-15.16-28.9-30.61-58.13-33.22c-48.39-4.32-59.09,41.8-45.06,75.33
				c13.02,31.13-1.95,35.16-5.38,39.25h0c-0.9-0.08-1.38-0.2-1.38-0.2c1.53-4.59,19.98-6.68,5.95-40.21
				c-14.03-33.53-3.33-79.66,45.06-75.33C197.48,29.21,215.71,45.38,226.45,60.9z"/>
			
				<linearGradient id="SVGID_57_" gradientUnits="userSpaceOnUse" x1="975.2971" y1="310.7257" x2="968.5699" y2="212.9015" gradientTransform="matrix(0.9892 0.1463 -0.1463 0.9892 -769.6387 -317.595)">
				<stop  offset="0" style="stop-color:#32D2FC"/>
				<stop  offset="9.372265e-03" style="stop-color:#30CEFB"/>
				<stop  offset="0.0742" style="stop-color:#25B3F5"/>
				<stop  offset="0.1404" style="stop-color:#1CA0F1"/>
				<stop  offset="0.2084" style="stop-color:#1895EF"/>
				<stop  offset="0.2809" style="stop-color:#1691EE"/>
				<stop  offset="0.6685" style="stop-color:#1A64D4"/>
				<stop  offset="0.8876" style="stop-color:#0C36BC"/>
				<stop  offset="1" style="stop-color:#1A38BF"/>
			</linearGradient>
			<path fill="url(#SVGID_57_)" d="M179.06,57.33c-0.97,0.32-1.93,0.72-2.88,1.19c-26.31,13.11-22.29,66.41-37.77,77.16
				c-4.94,3.43-9.4,5.15-12.98,5.98c3.11-0.98,6.81-2.48,10.62-5.33c18-13.46,11.46-64.05,37.77-77.16
				C175.53,58.31,177.28,57.71,179.06,57.33z"/>
			
				<radialGradient id="SVGID_58_" cx="832.102" cy="332.254" r="167.8346" gradientTransform="matrix(0.9892 0.1463 -0.1463 0.9892 -769.6387 -317.595)" gradientUnits="userSpaceOnUse">
				<stop  offset="0" style="stop-color:#FFFFFF"/>
				<stop  offset="1" style="stop-color:#000000"/>
			</radialGradient>
			<path fill="url(#SVGID_58_)" d="M137.1,93.85c-7.01-36.91,20.07-71.5,73.49-60.07c-48.94-36.89-74.76-12.32-82.84-0.25
				c-5.03,7.52-9.42,26.46-9.9,37.19c-0.23,5.1,0.13,10.34,1.08,15.58c0.95,5.23,2.45,10.33,4.47,15.16
				c4.92,11.76,6.41,20.8,4.55,27.64c-1.22,4.48-3.46,7.55-5.74,9.52C123.05,138.51,142.86,124.21,137.1,93.85z"/>
			
				<radialGradient id="SVGID_59_" cx="1049.7251" cy="217.5008" r="41.7932" gradientTransform="matrix(0.9892 0.1463 -0.1463 0.9892 -769.6387 -317.595)" gradientUnits="userSpaceOnUse">
				<stop  offset="0" style="stop-color:#FFFFFF"/>
				<stop  offset="1" style="stop-color:#000000"/>
			</radialGradient>
			<path fill="url(#SVGID_59_)" d="M226.63,55.41c-5.74-10.78-12.66-19.71-20.56-26.54c-8.58-7.42-18.35-12.37-29.11-14.77
				c5.34,2.47,9.38,6.13,22.41,16.99c15.93,13.26,24.11,21.48,34.78,41.25C232.34,67.45,229.54,60.88,226.63,55.41z"/>
			
				<radialGradient id="SVGID_60_" cx="943.9733" cy="325.0901" r="0.0567" gradientTransform="matrix(0.9892 0.1463 -0.1463 0.9892 -769.6387 -317.595)" gradientUnits="userSpaceOnUse">
				<stop  offset="0" style="stop-color:#FFFFFF"/>
				<stop  offset="1" style="stop-color:#000000"/>
			</radialGradient>
			<path fill="url(#SVGID_60_)" d="M116.66,142.1c-0.1-0.02-0.16-0.03-0.16-0.03S116.55,142.08,116.66,142.1z"/>
			
				<radialGradient id="SVGID_61_" cx="931.5634" cy="277.9825" r="68.4337" gradientTransform="matrix(0.9892 0.1463 -0.1463 0.9892 -769.6387 -317.595)" gradientUnits="userSpaceOnUse">
				<stop  offset="0" style="stop-color:#FFFFFF"/>
				<stop  offset="1" style="stop-color:#000000"/>
			</radialGradient>
			<path fill="url(#SVGID_61_)" d="M183.24,61.61c-25.49,0.98-29.13,45-35.4,61.17c-9.03,23.31-29.21,19.73-31.18,19.32
				c2.17,0.46,26.4,5.21,33.93-11.44c3.65-8.06,7.42-14.94,11.26-20.8c-1.95-5.97-2.27-11.11-2.29-11.41c0-0.01,0-0.01,0-0.01
				c0.25,0,0.96,0.17,1.6,0.48c0.5,0.24,1.46,0.89,1.92,1.2c1.09,0.73,1.54,1.09,2.63,1.69c0.47,0.26,0.89,0.53,1.37,0.75
				c17.89-22.81,36.66-25.23,50.73-22.14c2.48-1.14,5.07-2.19,7.52-2.93c0.09-0.03,0.18-0.05,0.27-0.08
				C215.15,69.37,200.09,60.96,183.24,61.61z"/>
		</g>
		<g>
			<defs>
				<path id="SVGID_62_" d="M163.82,117.49c0,0,0.59-1.48-0.28-3.27c-0.88-1.79-1.45-3.53-2.06-5.45c-0.61-1.92-1.22-5.07-1.55-6.94
					c-0.32-1.87-0.38-3.43-0.38-3.43s0,0.05,0.67,0.19c0.66,0.14,1.32,0.59,2.85,1.54c1.53,0.96,0.95,0.84,3.38,2.21
					c2.43,1.37,6.37,1.9,6.37,1.9s0.76-0.82,0.99-0.89l-16.56-18.28L154.5,96.7L163.82,117.49z"/>
			</defs>
			<clipPath id="SVGID_63_">
				<use xlink:href="#SVGID_62_"  overflow="visible"/>
			</clipPath>
			
				<radialGradient id="SVGID_64_" cx="-8219.875" cy="1004.5634" r="21.5884" gradientTransform="matrix(0.2409 -0.1208 0.4129 0.8237 1731.6719 -1713.6107)" gradientUnits="userSpaceOnUse">
				<stop  offset="0" style="stop-color:#000000"/>
				<stop  offset="1" style="stop-color:#FFFFFF"/>
			</radialGradient>
			<path clip-path="url(#SVGID_63_)" fill="url(#SVGID_64_)" d="M157.38,89.03c-2.87,1.44-1.21,10.57,3.71,20.39
				c4.92,9.82,11.24,16.62,14.11,15.18c2.87-1.44,1.21-10.57-3.71-20.39C166.57,94.38,160.25,87.59,157.38,89.03z"/>
		</g>
		<g>
			<defs>
				<path id="SVGID_65_" d="M235.95,74.53c0,0-12.29,3.21-15.39,4.71c-3.1,1.5-7.68,3.57-11.03,5.5c-3.35,1.93-3.15-2.87-3.15-2.87
					s-0.02-7.29,11.52-10.69c11.59-3.42,13.12-4.87,14.99-2.67C234.75,70.71,235.95,74.53,235.95,74.53z"/>
			</defs>
			<clipPath id="SVGID_66_">
				<use xlink:href="#SVGID_65_"  overflow="visible"/>
			</clipPath>
			
				<radialGradient id="SVGID_67_" cx="17503.5781" cy="-3864.4727" r="21.5876" gradientTransform="matrix(0.1209 0.4061 -0.6636 0.1975 -4457.4761 -6263.7251)" gradientUnits="userSpaceOnUse">
				<stop  offset="0" style="stop-color:#000000"/>
				<stop  offset="0.0454" style="stop-color:#0F0F0F"/>
				<stop  offset="0.3187" style="stop-color:#636363"/>
				<stop  offset="0.5602" style="stop-color:#A6A6A6"/>
				<stop  offset="0.761" style="stop-color:#D6D6D6"/>
				<stop  offset="0.9136" style="stop-color:#F4F4F4"/>
				<stop  offset="1" style="stop-color:#FFFFFF"/>
			</radialGradient>
			<path clip-path="url(#SVGID_66_)" fill="url(#SVGID_67_)" d="M237.5,76.98c-1.44-4.84-9.02-6.86-16.94-4.5
				c-7.91,2.35-13.16,8.19-11.72,13.03c1.44,4.84,9.02,6.86,16.94,4.5C233.69,87.66,238.94,81.82,237.5,76.98z"/>
		</g>
	</g>
</g>
<radialGradient id="SVGID_68_" cx="166.9898" cy="928.3019" r="174.373" gradientTransform="matrix(1 0 0 0.0667 0 339.5862)" gradientUnits="userSpaceOnUse">
	<stop  offset="0" style="stop-color:#878787"/>
	<stop  offset="0.0976" style="stop-color:#999999"/>
	<stop  offset="0.362" style="stop-color:#C5C5C5"/>
	<stop  offset="0.5992" style="stop-color:#E5E5E5"/>
	<stop  offset="0.7984" style="stop-color:#F8F8F8"/>
	<stop  offset="0.9355" style="stop-color:#FFFFFF"/>
	<stop  offset="1" style="stop-color:#FFFFFF"/>
</radialGradient>
<ellipse fill="url(#SVGID_68_)" cx="166.99" cy="401.5" rx="174.34" ry="11.63"/>
<g>
	<g>
		<path fill="#A3A3A3" d="M77.75,375.59c-1.36,0-2.84,0.08-4.42,0.24c-0.06-0.09-0.1-0.29-0.1-0.57c0-0.29,0.03-0.49,0.1-0.62
			c0.67,0,1.16-0.07,1.47-0.21c0.32-0.14,0.49-0.26,0.52-0.36c0.16-0.38,0.24-1.36,0.24-2.95v-4.52c0-0.16-0.75-1.6-2.23-4.33
			c-1.68-3.07-2.62-4.8-2.8-5.18c-0.25-0.38-0.63-0.64-1.12-0.78c-0.49-0.14-0.83-0.21-1.02-0.21c-0.1-0.13-0.13-0.33-0.12-0.62
			c0.02-0.29,0.05-0.48,0.12-0.57c1.49,0.16,2.98,0.24,4.47,0.24c1.36,0,2.84-0.08,4.42-0.24c0.06,0.09,0.09,0.29,0.09,0.57
			c0,0.29-0.03,0.49-0.09,0.62c-1.27,0-1.9,0.27-1.9,0.81c0,0.09,0.06,0.27,0.19,0.52l3.8,6.94c0.09,0.09,1.41-2.17,3.95-6.8
			c0.09-0.29,0.14-0.51,0.14-0.69s-0.1-0.31-0.31-0.4c-0.21-0.09-0.44-0.17-0.69-0.24c-0.38-0.1-0.82-0.14-1.33-0.14
			c-0.06-0.13-0.1-0.33-0.1-0.62c0-0.29,0.03-0.48,0.1-0.57c1.9,0.16,3.14,0.24,3.73,0.24c0.59,0,1.13-0.03,1.64-0.09
			c0.51-0.06,1.08-0.11,1.71-0.14c0.06,0.09,0.1,0.29,0.1,0.57c0,0.29-0.03,0.49-0.1,0.62c-1.17,0-1.95,0.25-2.33,0.76
			c-0.82,1.27-1.89,2.96-3.18,5.09c-1.78,3.01-2.66,4.63-2.66,4.85l-0.05,4.33c0,1.59,0.05,2.5,0.14,2.73
			c0.09,0.24,0.23,0.4,0.4,0.48c0.17,0.08,0.37,0.15,0.59,0.21c0.38,0.06,0.74,0.09,1.09,0.09c0.09,0.13,0.13,0.33,0.12,0.62
			c-0.02,0.29-0.06,0.48-0.12,0.57C80.7,375.67,79.21,375.59,77.75,375.59z"/>
		<path fill="#A3A3A3" d="M96.34,361.67c1.08,0,2.07,0.17,2.97,0.52c0.9,0.35,1.69,0.84,2.35,1.47c1.36,1.33,2.04,2.99,2.04,4.99
			c0,1.97-0.71,3.68-2.14,5.13c-1.36,1.43-3.09,2.14-5.18,2.14c-2.19,0-3.96-0.68-5.32-2.04c-1.36-1.36-2.04-3.03-2.04-4.99
			c0-1.93,0.7-3.63,2.09-5.09C92.5,362.38,94.25,361.67,96.34,361.67z M95.96,362.95c-1.43,0-2.22,1.17-2.38,3.52
			c-0.06,0.63-0.09,1.27-0.09,1.9c0,0.63,0.05,1.32,0.17,2.07c0.11,0.74,0.31,1.42,0.59,2.02c0.6,1.43,1.41,2.14,2.42,2.14
			c1.49,0,2.33-1.16,2.52-3.47c0.03-0.6,0.05-1.22,0.05-1.85c0-0.63-0.06-1.33-0.19-2.09c-0.13-0.76-0.33-1.44-0.62-2.04
			C97.83,363.68,97,362.95,95.96,362.95z"/>
		<path fill="#A3A3A3" d="M112.64,363.38c2.06-0.16,4.09-0.71,6.08-1.66c0.13,0.03,0.25,0.11,0.38,0.24
			c0.13,0.13,0.19,0.22,0.19,0.29c-0.06,0.16-0.14,0.58-0.24,1.26c-0.09,0.68-0.14,1.24-0.14,1.69v7.13c0,0.25,0.01,0.48,0.02,0.67
			c0.02,0.19,0.1,0.36,0.26,0.52c0.19,0.19,0.67,0.29,1.43,0.29c0.06,0.13,0.1,0.29,0.1,0.5c0,0.21-0.06,0.39-0.19,0.55
			c-0.63,0.03-1.66,0.22-3.09,0.57c-1.43,0.35-2.19,0.52-2.28,0.52c-0.19,0-0.29-0.25-0.29-0.76v-0.52c0-0.13-0.03-0.17-0.09-0.14
			c-1.43,0.89-2.9,1.33-4.42,1.33c-2.06,0-3.34-1.16-3.85-3.47c-0.13-0.7-0.19-1.41-0.19-2.14v-3.19c0-0.25-0.03-0.63-0.1-1.14
			c-0.06-0.51-0.13-0.82-0.19-0.95c-0.16-0.32-0.7-0.51-1.62-0.57c-0.19-0.03-0.31-0.06-0.36-0.07c-0.05-0.02-0.07-0.17-0.07-0.48
			c0-0.3,0.03-0.45,0.09-0.45c1.2-0.1,2.38-0.33,3.52-0.69c1.14-0.36,2.01-0.69,2.61-0.97c0.13,0.03,0.25,0.11,0.36,0.24
			c0.11,0.13,0.17,0.22,0.17,0.29c-0.06,0.13-0.13,0.4-0.19,0.81c-0.06,0.41-0.1,0.76-0.12,1.05c-0.02,0.29-0.02,0.65-0.02,1.09
			v3.61c0,1.68,0.16,2.96,0.47,3.83c0.32,0.87,0.97,1.31,1.95,1.31c0.44,0,0.89-0.13,1.36-0.38c0.46-0.25,0.69-0.51,0.69-0.76v-5.75
			c0-0.25-0.03-0.63-0.09-1.14c-0.06-0.51-0.13-0.82-0.19-0.95c-0.19-0.41-0.86-0.62-2-0.62c-0.06-0.03-0.09-0.2-0.09-0.5
			C112.5,363.53,112.54,363.38,112.64,363.38z"/>
		<path fill="#A3A3A3" d="M125.24,375.59c-1.3,0-2.74,0.08-4.33,0.24c-0.06-0.09-0.09-0.29-0.09-0.57c0-0.29,0.03-0.49,0.09-0.62
			c0.67,0,1.16-0.07,1.47-0.21c0.32-0.14,0.51-0.26,0.57-0.36c0.16-0.38,0.24-1.36,0.24-2.95v-4.09c0-0.25-0.03-0.63-0.09-1.14
			c-0.06-0.51-0.13-0.82-0.19-0.95c-0.22-0.41-0.89-0.62-2-0.62c-0.06-0.03-0.09-0.2-0.07-0.5c0.02-0.3,0.06-0.45,0.12-0.45
			c1.2-0.1,2.38-0.33,3.52-0.69c1.14-0.36,2.01-0.69,2.62-0.97c0.09,0.03,0.21,0.11,0.33,0.24c0.13,0.13,0.18,0.22,0.17,0.29
			c-0.02,0.06-0.04,0.21-0.07,0.43c-0.03,0.22-0.06,0.47-0.1,0.74c-0.03,0.27-0.06,0.53-0.09,0.78c-0.03,0.25-0.05,0.42-0.05,0.5
			s0.03,0.13,0.1,0.14c0.06,0.02,0.09,0.01,0.09-0.02c0.57-0.95,1.05-1.62,1.43-2c0.82-0.76,1.66-1.14,2.52-1.14
			c0.95,0,1.6,0.17,1.95,0.52c0.25,0.38,0.38,0.8,0.38,1.26c0,0.46-0.05,0.84-0.14,1.14c-0.1,0.3-0.24,0.58-0.43,0.83
			c-0.38,0.54-0.82,0.81-1.33,0.81c-0.29,0-0.53-0.09-0.74-0.29c-0.21-0.19-0.4-0.36-0.57-0.52c-0.17-0.16-0.35-0.31-0.52-0.45
			c-0.17-0.14-0.4-0.21-0.69-0.21c-0.29,0-0.56,0.1-0.81,0.31c-0.25,0.21-0.48,0.45-0.67,0.74c-0.38,0.57-0.57,1.08-0.57,1.52v3.8
			c0,1.59,0.05,2.5,0.14,2.73c0.1,0.24,0.22,0.4,0.38,0.48c0.16,0.08,0.33,0.15,0.52,0.21c0.32,0.06,0.65,0.09,1,0.09
			c0.06,0.13,0.09,0.33,0.09,0.62c0,0.29-0.03,0.48-0.09,0.57C127.74,375.67,126.38,375.59,125.24,375.59z"/>
		<path fill="#A3A3A3" d="M160.12,369.27c0.32,0,0.68,0.13,1.09,0.38c0,0.22-0.11,0.84-0.33,1.85c-0.44,1.9-0.76,2.88-0.95,2.95
			c-1.01,0.35-2.05,0.68-3.11,1c-1.06,0.32-2.33,0.47-3.8,0.47c-1.47,0-2.86-0.26-4.16-0.78c-1.3-0.52-2.44-1.24-3.42-2.16
			c-2.12-2-3.19-4.47-3.19-7.42c0-2.98,1.06-5.53,3.19-7.65c2.09-2.09,4.64-3.14,7.65-3.14c2.54,0,4.72,0.19,6.56,0.57l1.05,4.75
			c0,0.09-0.09,0.2-0.26,0.31c-0.17,0.11-0.37,0.17-0.57,0.17c-0.21,0-0.34-0.05-0.4-0.14c-0.35-1.08-0.81-1.9-1.38-2.47
			c-1.17-1.24-2.74-1.85-4.71-1.85c-2.09,0-3.66,0.87-4.71,2.61c-0.92,1.52-1.38,3.5-1.38,5.94c0,2.73,0.52,4.98,1.57,6.75
			c1.24,2.09,2.96,3.14,5.18,3.14c2.12,0,3.69-0.82,4.71-2.47c0.51-0.76,0.86-1.4,1.05-1.92
			C159.98,369.63,160.09,369.33,160.12,369.27z"/>
		<path fill="#A3A3A3" d="M169.63,361.67c1.08,0,2.07,0.17,2.97,0.52c0.9,0.35,1.69,0.84,2.35,1.47c1.36,1.33,2.04,2.99,2.04,4.99
			c0,1.97-0.71,3.68-2.14,5.13c-1.36,1.43-3.09,2.14-5.18,2.14c-2.19,0-3.96-0.68-5.32-2.04c-1.36-1.36-2.04-3.03-2.04-4.99
			c0-1.93,0.7-3.63,2.09-5.09C165.8,362.38,167.54,361.67,169.63,361.67z M169.25,362.95c-1.43,0-2.22,1.17-2.38,3.52
			c-0.06,0.63-0.09,1.27-0.09,1.9c0,0.63,0.05,1.32,0.17,2.07c0.11,0.74,0.31,1.42,0.59,2.02c0.6,1.43,1.41,2.14,2.42,2.14
			c1.49,0,2.33-1.16,2.52-3.47c0.03-0.6,0.05-1.22,0.05-1.85c0-0.63-0.06-1.33-0.19-2.09c-0.13-0.76-0.33-1.44-0.62-2.04
			C171.12,363.68,170.3,362.95,169.25,362.95z"/>
		<path fill="#A3A3A3" d="M182.23,375.59c-1.3,0-2.74,0.08-4.33,0.24c-0.06-0.09-0.09-0.29-0.09-0.57c0-0.29,0.03-0.49,0.09-0.62
			c0.67,0,1.16-0.07,1.47-0.21c0.32-0.14,0.51-0.26,0.57-0.36c0.16-0.38,0.24-1.36,0.24-2.95v-4.09c0-0.25-0.03-0.63-0.09-1.14
			c-0.06-0.51-0.13-0.82-0.19-0.95c-0.22-0.41-0.89-0.62-2-0.62c-0.06-0.03-0.09-0.2-0.07-0.5c0.02-0.3,0.05-0.45,0.12-0.45
			c1.2-0.1,2.38-0.33,3.52-0.69c1.14-0.36,2.01-0.69,2.61-0.97c0.09,0.03,0.21,0.11,0.33,0.24c0.13,0.13,0.17,0.22,0.14,0.29
			c-0.13,0.54-0.21,1-0.24,1.38c-0.03,0.38-0.03,0.57,0,0.57c0.03,0,0.06-0.02,0.09-0.05c0.03-0.03,0.08-0.06,0.14-0.09
			c0.44-0.51,0.98-0.95,1.62-1.33c1.11-0.67,2.1-1,2.97-1s1.6,0.19,2.19,0.57c0.59,0.38,1.07,1.08,1.45,2.09
			c0.06,0,0.17-0.09,0.33-0.26c0.16-0.17,0.43-0.4,0.83-0.69c0.4-0.29,0.83-0.55,1.31-0.81c1.14-0.6,2.1-0.9,2.88-0.9
			c0.78,0,1.44,0.15,2,0.45c0.55,0.3,0.97,0.75,1.26,1.36c0.54,1.08,0.81,2.93,0.81,5.56v2.04c0,0.7,0.01,1.28,0.02,1.76
			c0.02,0.48,0.07,0.82,0.17,1.02c0.09,0.21,0.23,0.35,0.4,0.43c0.17,0.08,0.37,0.15,0.59,0.21c0.32,0.06,0.68,0.09,1.09,0.09
			c0.06,0.13,0.09,0.33,0.09,0.62c0,0.29-0.03,0.48-0.09,0.57c-1.58-0.16-2.96-0.24-4.11-0.24c-1.16,0-2.53,0.08-4.11,0.24
			c-0.06-0.09-0.09-0.29-0.09-0.57c0-0.29,0.03-0.49,0.09-0.62c0.19,0,0.49-0.04,0.9-0.12c0.41-0.08,0.65-0.23,0.71-0.45
			c0.16-0.32,0.25-0.71,0.26-1.19c0.02-0.47,0.02-1.06,0.02-1.76v-2.47c0-2-0.38-3.34-1.14-4.04c-0.25-0.25-0.56-0.38-0.93-0.38
			c-0.37,0-0.72,0.06-1.07,0.19c-0.35,0.13-0.67,0.27-0.95,0.43c-0.67,0.41-1,0.78-1,1.09v0.19c0.09,0.92,0.14,1.9,0.14,2.95v2.04
			c0,1.59,0.05,2.5,0.14,2.73c0.09,0.24,0.23,0.4,0.4,0.48c0.17,0.08,0.37,0.15,0.59,0.21c0.32,0.06,0.67,0.09,1.05,0.09
			c0.06,0.13,0.09,0.33,0.09,0.62c0,0.29-0.03,0.48-0.09,0.57c-1.58-0.16-2.99-0.24-4.23-0.24c-1.08,0-2.41,0.08-3.99,0.24
			c-0.06-0.09-0.09-0.29-0.09-0.57c0-0.29,0.03-0.49,0.09-0.62c0.22,0,0.55-0.04,0.97-0.12c0.43-0.08,0.69-0.26,0.78-0.55
			c0.13-0.35,0.19-1.3,0.19-2.85v-2.47c0-2.95-0.7-4.42-2.09-4.42c-0.6,0-1.13,0.14-1.57,0.43c-0.79,0.57-1.19,1.01-1.19,1.33v5.13
			c0,1.59,0.05,2.5,0.14,2.73c0.1,0.24,0.22,0.4,0.38,0.48c0.16,0.08,0.33,0.15,0.52,0.21c0.32,0.06,0.65,0.09,1,0.09
			c0.06,0.13,0.1,0.33,0.1,0.62c0,0.29-0.03,0.48-0.1,0.57C184.73,375.67,183.37,375.59,182.23,375.59z"/>
		<path fill="#A3A3A3" d="M208.32,382.29c-1.36,0-2.79,0.08-4.28,0.24c-0.06-0.09-0.1-0.29-0.12-0.57
			c-0.02-0.29,0.02-0.49,0.12-0.62c0.6,0,1.08-0.06,1.43-0.19c0.35-0.13,0.54-0.24,0.57-0.33c0.16-0.44,0.24-1.43,0.24-2.95v-10.84
			c0-0.25-0.03-0.63-0.09-1.14c-0.06-0.51-0.13-0.82-0.19-0.95c-0.16-0.32-0.7-0.51-1.62-0.57c-0.19-0.03-0.31-0.06-0.36-0.07
			c-0.05-0.02-0.07-0.17-0.07-0.48c0-0.3,0.03-0.45,0.1-0.45c1.2-0.1,2.38-0.33,3.52-0.69c1.14-0.36,2.01-0.69,2.61-0.97
			c0.13,0.03,0.25,0.11,0.36,0.24c0.11,0.13,0.16,0.23,0.14,0.31c-0.02,0.08-0.06,0.21-0.14,0.38c-0.08,0.17-0.12,0.35-0.12,0.52
			s0.02,0.29,0.05,0.33c0.03,0.05,0.17-0.07,0.43-0.36c0.25-0.29,0.68-0.61,1.28-0.97c0.6-0.36,1.27-0.55,2-0.55
			c0.73,0,1.47,0.19,2.21,0.57c0.74,0.38,1.39,0.89,1.93,1.52c1.11,1.27,1.66,2.82,1.66,4.66c0,2.25-0.86,4.12-2.57,5.61
			c-1.49,1.3-3.2,1.95-5.13,1.95c-0.44,0-0.84-0.05-1.19-0.14c-0.35-0.09-0.55-0.14-0.62-0.14c-0.06,0-0.1,0.17-0.1,0.52v1.71
			c0,1.52,0.08,2.5,0.24,2.95c0.13,0.35,0.79,0.52,2,0.52c0.09,0.13,0.13,0.33,0.12,0.62c-0.02,0.29-0.06,0.48-0.12,0.57
			C211.08,382.37,209.65,382.29,208.32,382.29z M210.36,372.69c0,0.63,0.22,1.1,0.67,1.4c0.44,0.3,0.86,0.45,1.26,0.45
			c0.4,0,0.77-0.1,1.12-0.29c0.35-0.19,0.67-0.49,0.95-0.9c0.73-0.98,1.09-2.28,1.09-3.9c0-1.62-0.24-2.94-0.71-3.97
			c-0.48-1.03-1.36-1.54-2.66-1.54c-0.57,0-1,0.13-1.28,0.38c-0.29,0.25-0.43,0.41-0.43,0.48V372.69z"/>
		<path fill="#A3A3A3" d="M234.13,373.26c0.16,0.09,0.24,0.24,0.24,0.43c0,0.19-0.05,0.38-0.14,0.57c-0.19,0.19-0.52,0.44-1,0.76
			c-0.86,0.57-1.57,0.86-2.14,0.86c-0.57,0-1.09-0.17-1.54-0.5c-0.46-0.33-0.77-0.69-0.93-1.07c-0.44,0.44-1.07,0.83-1.88,1.14
			c-0.81,0.32-1.43,0.47-1.88,0.47c-0.44,0-0.92-0.11-1.43-0.33c-0.51-0.22-0.94-0.51-1.28-0.86c-0.79-0.79-1.19-1.58-1.19-2.38
			s0.17-1.42,0.5-1.88c0.33-0.46,0.68-0.74,1.05-0.86c0.36-0.11,0.79-0.26,1.28-0.45c0.49-0.19,1.02-0.4,1.59-0.62
			c0.73-0.25,1.74-0.63,3.04-1.14v-1.47c0-0.79-0.17-1.51-0.52-2.16c-0.35-0.65-0.81-0.97-1.38-0.97c-0.57,0-0.97,0.25-1.21,0.76
			c-0.24,0.51-0.4,1.03-0.5,1.57c-0.25,1.11-0.87,1.66-1.85,1.66c-0.41,0-0.78-0.13-1.12-0.4c-0.33-0.27-0.5-0.56-0.5-0.88
			c0-0.44,0.14-0.95,0.43-1.52c0.35-0.35,0.92-0.73,1.71-1.14c1.62-0.82,3.07-1.24,4.35-1.24c1.28,0,2.38,0.44,3.28,1.33
			c0.9,0.89,1.35,2.04,1.35,3.47v5.85c0,0.44,0.08,0.77,0.24,0.97c0.16,0.21,0.34,0.31,0.55,0.31c0.21,0,0.39-0.05,0.55-0.14
			L234.13,373.26z M227.1,373.74c0.41,0,0.74-0.09,0.97-0.26c0.24-0.17,0.36-0.31,0.36-0.4v-4.37c-0.35,0.16-0.71,0.31-1.07,0.45
			c-0.36,0.14-0.74,0.34-1.12,0.59c-0.7,0.48-1.04,1.11-1.02,1.9c0.02,0.79,0.23,1.34,0.64,1.64
			C226.27,373.59,226.68,373.74,227.1,373.74z"/>
		<path fill="#A3A3A3" d="M239.64,375.59c-1.3,0-2.74,0.08-4.33,0.24c-0.06-0.09-0.09-0.29-0.09-0.57c0-0.29,0.03-0.49,0.09-0.62
			c0.67,0,1.16-0.07,1.47-0.21c0.32-0.14,0.51-0.26,0.57-0.36c0.16-0.38,0.24-1.36,0.24-2.95v-4.09c0-0.25-0.03-0.63-0.09-1.14
			c-0.06-0.51-0.13-0.82-0.19-0.95c-0.22-0.41-0.89-0.62-2-0.62c-0.06-0.03-0.09-0.2-0.07-0.5c0.02-0.3,0.05-0.45,0.12-0.45
			c1.2-0.1,2.38-0.33,3.52-0.69c1.14-0.36,2.01-0.69,2.61-0.97c0.09,0,0.21,0.07,0.33,0.21c0.13,0.14,0.18,0.25,0.17,0.31
			c-0.02,0.06-0.03,0.18-0.05,0.36c-0.02,0.17-0.06,0.39-0.12,0.64c-0.16,0.63-0.19,0.95-0.09,0.95c0.03,0,0.06-0.02,0.09-0.05
			c0.03-0.03,0.08-0.06,0.14-0.09c0.44-0.51,0.98-0.95,1.62-1.33c1.11-0.67,2.07-1,2.88-1s1.49,0.15,2.04,0.45
			c0.55,0.3,0.99,0.75,1.31,1.36c0.54,1.08,0.81,2.93,0.81,5.56v2.04c0,1.59,0.05,2.5,0.14,2.73c0.09,0.24,0.23,0.4,0.4,0.48
			c0.17,0.08,0.37,0.15,0.59,0.21c0.38,0.06,0.74,0.09,1.09,0.09c0.09,0.13,0.13,0.33,0.12,0.62c-0.02,0.29-0.06,0.48-0.12,0.57
			c-1.49-0.16-2.92-0.24-4.28-0.24c-1.05,0-2.36,0.08-3.95,0.24c-0.06-0.09-0.09-0.29-0.09-0.57c0-0.29,0.03-0.49,0.09-0.62
			c0.22,0,0.54-0.04,0.95-0.12c0.41-0.08,0.67-0.26,0.76-0.55c0.13-0.35,0.19-1.3,0.19-2.85v-2.47c0-2.95-0.7-4.42-2.09-4.42
			c-0.6,0-1.13,0.14-1.57,0.43c-0.79,0.57-1.19,1.01-1.19,1.33v5.13c0,1.59,0.05,2.5,0.14,2.73c0.1,0.24,0.22,0.4,0.38,0.48
			c0.16,0.08,0.33,0.15,0.52,0.21c0.32,0.06,0.65,0.09,1,0.09c0.06,0.13,0.1,0.33,0.1,0.62c0,0.29-0.03,0.48-0.1,0.57
			C242.15,375.67,240.79,375.59,239.64,375.59z"/>
		<path fill="#A3A3A3" d="M262.32,361.81c0.89,0.13,1.97,0.19,3.26,0.19c1.28,0,2.37-0.06,3.26-0.19c0.06,0.06,0.1,0.24,0.12,0.52
			c0.02,0.29-0.02,0.49-0.12,0.62c-0.73,0-1.31,0.12-1.74,0.36c-0.43,0.24-0.69,0.47-0.78,0.69l-6.37,13.45
			c-0.92,1.77-1.97,3.14-3.14,4.09c-0.82,0.67-1.6,1-2.33,1c-0.73,0-1.28-0.17-1.64-0.5c-0.36-0.33-0.55-0.76-0.55-1.28
			c0-0.52,0.24-0.97,0.71-1.35c1.24,0,2.25-0.14,3.04-0.43c0.79-0.29,1.5-0.97,2.14-2.04c0.32-0.48,0.68-1.2,1.09-2.19l-5.18-10.6
			c-0.22-0.47-0.58-0.79-1.07-0.95c-0.49-0.16-0.8-0.24-0.93-0.24c-0.1-0.13-0.13-0.33-0.12-0.59c0.02-0.27,0.06-0.45,0.12-0.55
			c0.22,0.03,0.7,0.06,1.45,0.1c0.74,0.03,1.31,0.06,1.71,0.07s1.14,0.02,2.23,0.02c1.09,0,2.02-0.06,2.78-0.19
			c0.1,0.06,0.14,0.25,0.14,0.55c0,0.3-0.05,0.5-0.14,0.59c-0.19,0-0.47,0.06-0.86,0.19c-0.67,0.19-1,0.41-1,0.67v0.19
			c0,0.1,0.03,0.19,0.1,0.29l3.23,6.18l2.47-5.51c0.22-0.57,0.33-0.95,0.33-1.14c0-0.19-0.1-0.35-0.31-0.48
			c-0.21-0.13-0.45-0.22-0.74-0.29c-0.44-0.06-0.84-0.09-1.19-0.09c-0.06-0.06-0.09-0.25-0.09-0.55
			C262.22,362.1,262.25,361.9,262.32,361.81z"/>
	</g>
</g>
<g>
	<g>
		<path fill="#3795CC" d="M34.83,339.88h-4.42l9.81-49.68h5.72l9.81,49.68h-4.45l-2.48-12.93H37.37L34.83,339.88z M37.89,324.03
			h10.39l-5.22-29.27L37.89,324.03z"/>
		<path fill="#3795CC" d="M60.58,339.88V290.2h4.33v18.36c0.9-1.33,1.94-2.33,3.1-3.02c1.16-0.68,2.35-1.03,3.57-1.03
			c0.83,0,1.55,0.08,2.17,0.25c0.62,0.16,1.29,0.58,2.02,1.24c0.73,0.66,1.33,1.57,1.79,2.73c0.46,1.15,0.85,2.8,1.17,4.95
			c0.32,2.15,0.48,4.71,0.48,7.69v2.74c0,2.08-0.08,3.95-0.25,5.63c-0.16,1.67-0.38,3.07-0.63,4.2c-0.26,1.13-0.59,2.11-1,2.94
			c-0.4,0.84-0.81,1.49-1.21,1.96c-0.4,0.47-0.87,0.85-1.39,1.13c-0.52,0.28-0.99,0.46-1.42,0.55c-0.42,0.09-0.89,0.13-1.41,0.13
			c-2.93,0-5.25-1.35-6.99-4.04v3.26H60.58z M74.87,324.15v-2.74c0-2.12-0.05-3.96-0.14-5.54c-0.1-1.58-0.26-2.85-0.48-3.83
			c-0.22-0.97-0.44-1.76-0.66-2.37c-0.22-0.61-0.51-1.04-0.87-1.31c-0.36-0.27-0.67-0.44-0.95-0.52c-0.28-0.08-0.63-0.12-1.05-0.12
			c-1.81,0-3.74,1.14-5.8,3.43v22.8c0.87,1.04,1.81,1.88,2.83,2.53c1.02,0.65,1.96,0.97,2.83,0.97c0.38,0,0.7-0.02,0.94-0.06
			c0.24-0.04,0.53-0.14,0.87-0.32c0.34-0.17,0.61-0.43,0.82-0.78c0.21-0.35,0.43-0.84,0.66-1.49c0.23-0.64,0.41-1.43,0.55-2.35
			c0.13-0.92,0.25-2.09,0.33-3.49C74.82,327.57,74.87,325.96,74.87,324.15z"/>
		<path fill="#3795CC" d="M83.9,331.22l3.32-1.13c0.27,0.85,0.6,1.66,1,2.45c0.39,0.79,0.87,1.58,1.43,2.37
			c0.56,0.79,1.22,1.42,1.98,1.91c0.76,0.48,1.55,0.72,2.38,0.72c1.52,0,2.66-0.46,3.42-1.39c0.76-0.92,1.14-2.17,1.14-3.75
			c0-2.21-1.97-5.05-5.92-8.52l-2.51-2.19c-1.91-1.67-3.34-3.17-4.32-4.49c-0.97-1.32-1.46-2.79-1.46-4.43
			c0-2.6,0.79-4.61,2.37-6.05c1.58-1.43,3.68-2.15,6.32-2.15c1.25,0,2.39,0.24,3.41,0.72c1.02,0.48,1.88,1.15,2.57,2.01
			c0.69,0.86,1.27,1.78,1.75,2.77c0.47,0.99,0.85,2.08,1.14,3.28l-3.84,1.18c-0.17-1.08-0.45-2.1-0.82-3.06
			c-0.38-0.96-0.95-1.83-1.73-2.61c-0.78-0.78-1.67-1.17-2.67-1.17c-1.29,0-2.31,0.44-3.07,1.31c-0.76,0.88-1.14,2.01-1.14,3.39
			c0,1.15,0.37,2.25,1.11,3.29c0.74,1.04,1.81,2.16,3.22,3.35l2.74,2.37c0.88,0.77,1.56,1.37,2.04,1.8
			c0.47,0.43,1.07,1.05,1.79,1.85c0.72,0.8,1.26,1.52,1.63,2.16c0.37,0.65,0.7,1.42,1,2.32c0.3,0.9,0.46,1.83,0.48,2.77
			c0,2.58-0.81,4.61-2.44,6.11c-1.63,1.49-3.75,2.24-6.37,2.24c-2.54,0-4.66-0.89-6.37-2.67C85.76,336.21,84.57,333.96,83.9,331.22z
			"/>
		<path fill="#3795CC" d="M108.7,331.71v-23.99h-4.71v-2.43h4.71v-12.27h4.33v12.27h5.54v2.43h-5.54v23.79
			c0,0.83,0.01,1.48,0.03,1.95c0.02,0.47,0.08,0.98,0.19,1.53c0.11,0.55,0.26,0.96,0.46,1.23c0.2,0.27,0.49,0.5,0.87,0.68
			c0.38,0.18,0.84,0.28,1.4,0.28c0.94,0,1.79-0.08,2.54-0.23v2.97c-1.29,0.33-2.54,0.49-3.75,0.49c-1.08,0-2-0.17-2.77-0.5
			c-0.77-0.34-1.36-0.75-1.78-1.26c-0.41-0.5-0.74-1.16-0.98-1.99c-0.24-0.83-0.39-1.6-0.45-2.32
			C108.72,333.6,108.7,332.73,108.7,331.71z"/>
		<path fill="#3795CC" d="M123.21,339.88V305.3h4.33v4.88c0.54-1.79,1.51-3.13,2.92-4.03c1.4-0.89,2.86-1.36,4.36-1.4v4.36
			c-0.21-0.08-0.43-0.12-0.66-0.12c-4.41,0-6.61,1.69-6.61,5.08v25.81H123.21z"/>
		<path fill="#3795CC" d="M151.21,339.88l-0.55-4.19c-0.92,1.62-2.06,2.85-3.42,3.7c-1.36,0.85-2.65,1.27-3.88,1.27
			c-1.79,0-3.38-0.71-4.76-2.12c-1.39-1.42-2.08-3.27-2.08-5.56c0-0.62,0.01-1.11,0.03-1.49c0.02-0.38,0.07-0.86,0.16-1.46
			c0.09-0.6,0.21-1.1,0.38-1.5s0.4-0.9,0.72-1.49c0.32-0.59,0.71-1.11,1.17-1.56c0.46-0.45,1.04-0.97,1.73-1.56
			c0.69-0.59,1.49-1.15,2.4-1.67c0.9-0.53,1.97-1.1,3.19-1.7c1.22-0.61,2.57-1.22,4.06-1.83v-0.29c0-1.96-0.09-3.64-0.26-5.04
			c-0.17-1.39-0.38-2.47-0.63-3.23c-0.25-0.76-0.57-1.35-0.97-1.78c-0.39-0.42-0.76-0.69-1.11-0.8c-0.35-0.11-0.77-0.16-1.27-0.16
			c-0.52,0-0.98,0.07-1.38,0.22c-0.4,0.14-0.84,0.42-1.3,0.84c-0.46,0.41-0.85,1.09-1.15,2.02c-0.31,0.93-0.5,2.1-0.58,3.51v0.2
			h-4.5c0.23-3.02,1.12-5.39,2.67-7.12c1.55-1.72,3.58-2.58,6.11-2.58c1.4,0,2.65,0.23,3.72,0.68c1.08,0.45,1.93,1.03,2.55,1.73
			c0.63,0.7,1.13,1.54,1.51,2.53c0.38,0.98,0.64,1.93,0.78,2.86c0.13,0.92,0.2,1.91,0.2,2.97v16.63c0,1.21,0.04,2.48,0.13,3.81
			c0.09,1.33,0.18,2.35,0.27,3.06l0.12,1.1H151.21z M150.35,332.84v-12.18c-1.41,0.98-2.51,1.77-3.32,2.37
			c-0.81,0.6-1.66,1.29-2.55,2.09c-0.89,0.8-1.57,1.53-2.02,2.18c-0.45,0.65-0.83,1.4-1.13,2.24c-0.3,0.84-0.45,1.72-0.45,2.64
			c0,1.66,0.35,2.88,1.04,3.68c0.69,0.8,1.51,1.2,2.45,1.2c1.1,0,2.21-0.39,3.33-1.18C148.83,335.08,149.71,334.07,150.35,332.84z"
			/>
		<path fill="#3795CC" d="M160.74,323.49v-1.79c0-1.54,0.01-2.72,0.03-3.54c0.02-0.82,0.09-1.93,0.2-3.35
			c0.12-1.41,0.28-2.52,0.5-3.3c0.22-0.79,0.56-1.69,1.02-2.71c0.46-1.02,1.02-1.8,1.67-2.32c0.65-0.53,1.49-0.99,2.51-1.37
			c1.02-0.38,2.18-0.58,3.49-0.58c1.33,0,2.5,0.22,3.51,0.65c1.01,0.43,1.83,1,2.45,1.69c0.63,0.69,1.14,1.57,1.54,2.63
			c0.4,1.06,0.69,2.12,0.87,3.18c0.17,1.06,0.3,2.27,0.38,3.64c0,0.04,0,0.09,0.01,0.16c0.01,0.07,0.01,0.12,0.01,0.16h-4.33v-0.26
			c-0.12-3.25-0.5-5.55-1.14-6.9c-0.64-1.35-1.75-2.02-3.3-2.02c-0.75,0-1.4,0.11-1.95,0.32c-0.55,0.21-1.01,0.59-1.39,1.13
			s-0.68,1.15-0.91,1.83c-0.23,0.68-0.41,1.61-0.55,2.77c-0.13,1.17-0.22,2.36-0.26,3.59c-0.04,1.23-0.06,2.77-0.06,4.62v1.79
			c0,5.41,0.34,9.14,1.01,11.19c0.67,2.05,2.04,3.07,4.1,3.07c1.52,0,2.6-0.69,3.25-2.08c0.64-1.38,1.04-3.76,1.2-7.13v-0.29h4.36
			v0.2c-0.06,1.46-0.17,2.75-0.33,3.85c-0.16,1.11-0.44,2.21-0.84,3.31c-0.39,1.1-0.9,2-1.53,2.7c-0.63,0.7-1.45,1.27-2.48,1.7
			c-1.03,0.43-2.24,0.65-3.62,0.65c-1.15,0-2.19-0.12-3.12-0.35c-0.92-0.23-1.71-0.62-2.35-1.16c-0.65-0.54-1.2-1.07-1.67-1.6
			c-0.47-0.53-0.85-1.28-1.13-2.27c-0.28-0.98-0.5-1.82-0.66-2.51c-0.16-0.69-0.28-1.68-0.36-2.97c-0.08-1.29-0.12-2.3-0.13-3.04
			C160.74,326.02,160.74,324.93,160.74,323.49z"/>
		<path fill="#3795CC" d="M186.05,331.71v-23.99h-4.71v-2.43h4.71v-12.27h4.33v12.27h5.54v2.43h-5.54v23.79
			c0,0.83,0.01,1.48,0.03,1.95c0.02,0.47,0.08,0.98,0.19,1.53c0.11,0.55,0.26,0.96,0.46,1.23c0.2,0.27,0.49,0.5,0.87,0.68
			c0.38,0.18,0.84,0.28,1.4,0.28c0.94,0,1.79-0.08,2.54-0.23v2.97c-1.29,0.33-2.54,0.49-3.75,0.49c-1.08,0-2-0.17-2.77-0.5
			c-0.77-0.34-1.36-0.75-1.78-1.26c-0.41-0.5-0.74-1.16-0.98-1.99c-0.24-0.83-0.39-1.6-0.45-2.32
			C186.08,333.6,186.05,332.73,186.05,331.71z"/>
		<path fill="#616161" d="M213.05,339.88V290.2h4.39v46.16h13.88v3.52H213.05z"/>
		<path fill="#616161" d="M234.17,323.49v-1.79c0-1.54,0.01-2.72,0.03-3.54c0.02-0.82,0.08-1.93,0.19-3.35
			c0.11-1.41,0.27-2.52,0.49-3.3c0.22-0.79,0.55-1.69,1-2.71c0.44-1.02,0.99-1.8,1.63-2.32s1.46-0.99,2.44-1.37
			c0.98-0.38,2.11-0.58,3.38-0.58c1.27,0,2.4,0.19,3.38,0.58c0.98,0.38,1.79,0.84,2.44,1.37s1.19,1.3,1.63,2.32
			c0.44,1.02,0.77,1.92,1,2.71c0.22,0.79,0.38,1.89,0.49,3.3c0.11,1.41,0.17,2.53,0.19,3.35c0.02,0.82,0.03,2,0.03,3.54v1.79
			c0,1.29,0,2.26-0.01,2.92c-0.01,0.65-0.04,1.56-0.09,2.73c-0.05,1.16-0.13,2.06-0.23,2.7c-0.11,0.64-0.26,1.42-0.48,2.37
			c-0.21,0.94-0.47,1.67-0.77,2.19c-0.3,0.52-0.68,1.09-1.14,1.72s-0.99,1.1-1.59,1.41c-0.6,0.32-1.3,0.59-2.12,0.81
			c-0.82,0.22-1.73,0.33-2.73,0.33c-1,0-1.91-0.11-2.73-0.33c-0.82-0.22-1.53-0.49-2.12-0.81c-0.6-0.32-1.13-0.79-1.59-1.41
			s-0.84-1.2-1.14-1.72c-0.3-0.52-0.55-1.25-0.76-2.19c-0.21-0.94-0.37-1.73-0.48-2.37c-0.11-0.63-0.18-1.53-0.23-2.7
			c-0.05-1.16-0.08-2.07-0.09-2.73C234.18,325.75,234.17,324.78,234.17,323.49z M238.5,321.7v1.79c0,5.43,0.32,9.16,0.95,11.2
			c0.64,2.04,1.92,3.06,3.87,3.06c1.94,0,3.23-1.02,3.87-3.06c0.63-2.04,0.95-5.77,0.95-11.2v-1.79c0-1.83-0.02-3.37-0.06-4.62
			c-0.04-1.25-0.12-2.45-0.25-3.59c-0.13-1.14-0.3-2.06-0.52-2.76c-0.22-0.69-0.51-1.3-0.87-1.83c-0.36-0.53-0.79-0.9-1.3-1.13
			c-0.51-0.22-1.12-0.33-1.83-0.33s-1.32,0.11-1.83,0.33c-0.51,0.22-0.95,0.6-1.31,1.13c-0.37,0.53-0.65,1.14-0.87,1.82
			c-0.21,0.68-0.38,1.61-0.51,2.77c-0.13,1.17-0.21,2.36-0.25,3.59C238.52,318.31,238.5,319.85,238.5,321.7z"/>
		<path fill="#616161" d="M261.71,333.82c-0.1,0.44,0.16,0.77,0.78,0.98c0.62,0.21,2.19,0.58,4.73,1.1c0.79,0.15,1.4,0.28,1.85,0.38
			c1.58,0.33,2.93,0.68,4.07,1.05c1.13,0.38,2.2,0.85,3.19,1.41c0.99,0.57,1.74,1.26,2.24,2.08c0.5,0.82,0.75,1.76,0.75,2.81
			c0,0.96-0.16,1.83-0.48,2.61c-0.32,0.78-0.73,1.43-1.23,1.95c-0.5,0.52-1.11,0.97-1.83,1.36c-0.72,0.38-1.43,0.68-2.12,0.89
			c-0.69,0.21-1.45,0.38-2.27,0.51c-0.82,0.13-1.51,0.2-2.09,0.23c-0.58,0.03-1.16,0.04-1.76,0.04c-7.68,0-11.52-1.51-11.52-4.53
			c0-1.94,0.63-3.67,1.88-5.17c1.25-1.5,2.78-2.71,4.59-3.64c-0.29-0.06-0.76-0.18-1.4-0.36c-0.64-0.18-1.37-0.47-2.17-0.85
			c-0.8-0.38-1.2-0.76-1.2-1.13c0-0.25,0.03-0.52,0.1-0.82c0.07-0.3,0.17-0.62,0.32-0.95c0.14-0.34,0.29-0.66,0.45-0.98
			c0.15-0.32,0.35-0.66,0.58-1.04c0.23-0.38,0.43-0.7,0.61-0.98c0.17-0.28,0.38-0.6,0.63-0.97c0.25-0.37,0.44-0.63,0.58-0.81
			c0.13-0.17,0.31-0.4,0.52-0.69c0.21-0.29,0.33-0.45,0.35-0.49c-1.37-1.23-2.38-2.82-3.04-4.76c-0.66-1.94-1-3.96-1-6.06
			c0-1.12,0.11-2.23,0.32-3.35c0.21-1.12,0.57-2.23,1.08-3.33c0.51-1.11,1.13-2.08,1.88-2.93c0.74-0.85,1.68-1.53,2.83-2.05
			c1.14-0.52,2.42-0.78,3.82-0.78c1.85,0,3.38,0.45,4.6,1.34c1.22,0.9,2.41,2.24,3.56,4.03c0.37-0.63,0.69-1.16,0.97-1.59
			c0.28-0.42,0.65-0.92,1.11-1.5c0.46-0.58,0.96-1.05,1.5-1.43c0.54-0.38,1.1-0.63,1.67-0.76v4.19c-0.73,0.13-1.49,0.46-2.28,0.97
			c-0.79,0.51-1.48,1.1-2.08,1.78c0.73,2.04,1.1,3.78,1.1,5.22c0,1.39-0.12,2.69-0.35,3.93c-0.23,1.23-0.6,2.39-1.11,3.48
			c-0.51,1.09-1.15,2.03-1.92,2.81c-0.77,0.79-1.72,1.41-2.86,1.86c-1.14,0.45-2.41,0.68-3.81,0.68c-1.66,0-3.04-0.23-4.16-0.69
			C262.65,330.86,261.98,332.51,261.71,333.82z M270.66,339.8l-6.18-1.33c-0.96,0.71-1.93,1.79-2.9,3.23
			c-0.97,1.44-1.46,2.67-1.46,3.7c0,0.44,0.1,0.83,0.3,1.15c0.2,0.33,0.52,0.59,0.95,0.78c0.43,0.19,0.84,0.35,1.21,0.46
			c0.38,0.12,0.9,0.2,1.57,0.25c0.67,0.05,1.18,0.08,1.53,0.09c0.35,0.01,0.86,0.01,1.53,0.01c0.17,0,0.3,0,0.38,0
			c5.1,0,7.65-1.24,7.65-3.72c0-1.37-0.36-2.4-1.07-3.1C273.47,340.61,272.3,340.1,270.66,339.8z M265.36,325.71
			c0.72,0.44,1.56,0.66,2.53,0.66c0.96,0,1.8-0.22,2.51-0.66c0.71-0.44,1.26-0.98,1.65-1.62c0.38-0.64,0.69-1.39,0.92-2.25
			c0.23-0.87,0.38-1.64,0.45-2.31c0.07-0.67,0.1-1.36,0.1-2.05c0-0.67-0.03-1.35-0.09-2.04c-0.06-0.68-0.21-1.49-0.45-2.42
			c-0.24-0.93-0.55-1.75-0.92-2.44c-0.38-0.69-0.92-1.29-1.65-1.79c-0.72-0.5-1.56-0.75-2.53-0.75c-0.81,0-1.54,0.17-2.18,0.5
			c-0.64,0.34-1.16,0.79-1.56,1.37c-0.39,0.58-0.73,1.19-1,1.83c-0.27,0.65-0.47,1.35-0.59,2.11c-0.13,0.76-0.21,1.42-0.26,1.98
			c-0.05,0.56-0.07,1.11-0.07,1.64c0,0.71,0.03,1.4,0.09,2.06c0.06,0.66,0.21,1.43,0.45,2.31c0.24,0.88,0.55,1.63,0.94,2.25
			C264.09,324.73,264.64,325.27,265.36,325.71z"/>
		<path fill="#616161" d="M283.56,323.49v-1.79c0-1.54,0.01-2.72,0.03-3.54c0.02-0.82,0.08-1.93,0.19-3.35
			c0.11-1.41,0.27-2.52,0.49-3.3c0.22-0.79,0.55-1.69,1-2.71c0.44-1.02,0.99-1.8,1.63-2.32c0.64-0.53,1.46-0.99,2.44-1.37
			c0.98-0.38,2.11-0.58,3.38-0.58c1.27,0,2.4,0.19,3.38,0.58c0.98,0.38,1.79,0.84,2.44,1.37c0.64,0.53,1.19,1.3,1.63,2.32
			c0.44,1.02,0.77,1.92,1,2.71c0.22,0.79,0.38,1.89,0.49,3.3c0.11,1.41,0.17,2.53,0.19,3.35c0.02,0.82,0.03,2,0.03,3.54v1.79
			c0,1.29,0,2.26-0.01,2.92c-0.01,0.65-0.04,1.56-0.09,2.73c-0.05,1.16-0.13,2.06-0.23,2.7c-0.11,0.64-0.26,1.42-0.48,2.37
			c-0.21,0.94-0.47,1.67-0.77,2.19c-0.3,0.52-0.68,1.09-1.14,1.72c-0.46,0.63-0.99,1.1-1.59,1.41c-0.6,0.32-1.3,0.59-2.12,0.81
			c-0.82,0.22-1.73,0.33-2.73,0.33c-1,0-1.91-0.11-2.73-0.33c-0.82-0.22-1.53-0.49-2.12-0.81c-0.6-0.32-1.13-0.79-1.59-1.41
			c-0.46-0.63-0.84-1.2-1.14-1.72c-0.3-0.52-0.55-1.25-0.76-2.19c-0.21-0.94-0.37-1.73-0.48-2.37c-0.11-0.63-0.18-1.53-0.23-2.7
			c-0.05-1.16-0.08-2.07-0.09-2.73S283.56,324.78,283.56,323.49z M287.89,321.7v1.79c0,5.43,0.32,9.16,0.95,11.2
			c0.64,2.04,1.92,3.06,3.87,3.06c1.94,0,3.23-1.02,3.87-3.06c0.63-2.04,0.95-5.77,0.95-11.2v-1.79c0-1.83-0.02-3.37-0.06-4.62
			c-0.04-1.25-0.12-2.45-0.25-3.59c-0.13-1.14-0.3-2.06-0.52-2.76c-0.22-0.69-0.51-1.3-0.87-1.83c-0.36-0.53-0.79-0.9-1.3-1.13
			c-0.51-0.22-1.12-0.33-1.83-0.33c-0.71,0-1.32,0.11-1.83,0.33c-0.51,0.22-0.95,0.6-1.31,1.13c-0.37,0.53-0.65,1.14-0.87,1.82
			c-0.21,0.68-0.38,1.61-0.51,2.77c-0.13,1.17-0.21,2.36-0.25,3.59C287.91,318.31,287.89,319.85,287.89,321.7z"/>
	</g>
</g>
</svg>
